<svg width="21" height="26" viewBox="0 0 21 26" fill="none" xmlns="http://www.w3.org/2000/svg">
<path d="M19.448 8.464C19.8533 8.464 20.1627 8.56 20.376 8.752C20.5893 8.944 20.6853 9.22133 20.664 9.584C20.6427 9.94667 20.4827 10.2347 20.184 10.448C19.8853 10.64 19.512 10.736 19.064 10.736H16.664L15.768 15.92H18.168C18.5733 15.92 18.872 16.0267 19.064 16.24C19.256 16.432 19.352 16.6773 19.352 16.976C19.352 17.2747 19.2133 17.552 18.936 17.808C18.68 18.064 18.2853 18.192 17.752 18.192H15.256L14.104 24.656C14.0187 25.0613 13.848 25.392 13.592 25.648C13.336 25.8827 13.0053 26 12.6 26C12.216 26 11.928 25.872 11.736 25.616C11.544 25.36 11.4907 25.0187 11.576 24.592L12.632 18.192H6.84L5.72 24.656C5.656 25.0187 5.48533 25.3387 5.208 25.616C4.93067 25.872 4.6 26 4.216 26C3.832 26 3.53333 25.8827 3.32 25.648C3.128 25.4133 3.07467 25.0613 3.16 24.592L4.28 18.192H1.72C1.35733 18.192 1.06933 18.096 0.856 17.904C0.642667 17.712 0.546667 17.4667 0.568 17.168C0.589333 16.7627 0.738667 16.4533 1.016 16.24C1.31467 16.0267 1.67733 15.92 2.104 15.92H4.792L5.656 10.736H3.096C2.69067 10.736 2.38133 10.6507 2.168 10.48C1.95467 10.288 1.848 10.0213 1.848 9.68C1.848 9.296 1.98667 8.99733 2.264 8.784C2.54133 8.57067 2.92533 8.464 3.416 8.464H6.168L7.288 2.256C7.352 1.85067 7.512 1.52 7.768 1.264C8.04533 1.008 8.38667 0.879999 8.792 0.879999C9.176 0.879999 9.464 1.008 9.656 1.264C9.86933 1.52 9.93333 1.85067 9.848 2.256L8.728 8.464H14.584L15.704 2.256C15.7467 1.85067 15.9067 1.52 16.184 1.264C16.4613 1.008 16.8027 0.879999 17.208 0.879999C17.6347 0.879999 17.9227 1.01867 18.072 1.296C18.2427 1.552 18.296 1.872 18.232 2.256L17.144 8.464H19.448ZM13.176 15.92L14.072 10.736H8.216L7.352 15.92H13.176Z" fill="#5C5C5C"/>
</svg>
