<svg width="21" height="21" viewBox="0 0 21 21" fill="none" xmlns="http://www.w3.org/2000/svg">
<path d="M10.5025 20.68C9.0225 20.68 7.6625 20.4333 6.4225 19.94C5.1825 19.4467 4.10917 18.7467 3.2025 17.84C2.29583 16.9333 1.59583 15.86 1.1025 14.62C0.609167 13.38 0.3625 12.02 0.3625 10.54C0.3625 9.06 0.609167 7.7 1.1025 6.46C1.59583 5.22 2.29583 4.14667 3.2025 3.24C4.10917 2.33333 5.1825 1.63333 6.4225 1.14C7.6625 0.646666 9.0225 0.399999 10.5025 0.399999C11.9825 0.399999 13.3425 0.646666 14.5825 1.14C15.8225 1.63333 16.8958 2.33333 17.8025 3.24C18.7092 4.14667 19.4092 5.22 19.9025 6.46C20.3958 7.7 20.6425 9.06 20.6425 10.54C20.6425 11.78 20.4692 12.88 20.1225 13.84C19.7758 14.7867 19.2958 15.5333 18.6825 16.08C18.0825 16.6267 17.3825 16.9 16.5825 16.9C15.8492 16.9 15.2425 16.7 14.7625 16.3C14.2958 15.9133 14.0625 15.3733 14.0625 14.68V13.78C13.8092 14.2333 13.4758 14.64 13.0625 15C12.6625 15.36 12.2225 15.64 11.7425 15.84C11.2625 16.04 10.7825 16.14 10.3025 16.14C9.24917 16.14 8.31583 15.9 7.5025 15.42C6.7025 14.94 6.06917 14.28 5.6025 13.44C5.14917 12.6 4.9225 11.6333 4.9225 10.54C4.9225 9.44667 5.1625 8.48 5.6425 7.64C6.1225 6.8 6.7825 6.14 7.6225 5.66C8.4625 5.18 9.4225 4.94 10.5025 4.94C11.5958 4.94 12.5625 5.18 13.4025 5.66C14.2425 6.14 14.9025 6.8 15.3825 7.64C15.8625 8.48 16.1025 9.44667 16.1025 10.54V13.74C16.1025 14.0733 16.1558 14.3333 16.2625 14.52C16.3692 14.7067 16.5425 14.8 16.7825 14.8C17.1025 14.8 17.3958 14.62 17.6625 14.26C17.9425 13.9 18.1625 13.4 18.3225 12.76C18.4825 12.1067 18.5625 11.3667 18.5625 10.54C18.5625 9.35333 18.3625 8.27333 17.9625 7.3C17.5758 6.31333 17.0225 5.46 16.3025 4.74C15.5825 4.02 14.7292 3.46667 13.7425 3.08C12.7692 2.68 11.6892 2.48 10.5025 2.48C9.32917 2.48 8.24917 2.68 7.2625 3.08C6.27583 3.46667 5.4225 4.02 4.7025 4.74C3.9825 5.46 3.4225 6.31333 3.0225 7.3C2.63583 8.27333 2.4425 9.35333 2.4425 10.54C2.4425 11.7133 2.63583 12.7933 3.0225 13.78C3.4225 14.7667 3.9825 15.62 4.7025 16.34C5.4225 17.06 6.27583 17.6133 7.2625 18C8.24917 18.4 9.32917 18.6 10.5025 18.6C11.0358 18.6 11.6092 18.5333 12.2225 18.4C12.8492 18.28 13.3825 18.12 13.8225 17.92C14.2758 17.6933 14.6425 17.6667 14.9225 17.84C15.2158 18.0133 15.3625 18.3467 15.3625 18.84C15.3625 19.2 15.1558 19.5133 14.7425 19.78C14.3292 20.06 13.7558 20.28 13.0225 20.44C12.2892 20.6 11.4492 20.68 10.5025 20.68ZM10.5025 14.04C11.1958 14.04 11.8025 13.8933 12.3225 13.6C12.8425 13.2933 13.2492 12.88 13.5425 12.36C13.8492 11.8267 14.0025 11.22 14.0025 10.54C14.0025 9.84667 13.8492 9.24 13.5425 8.72C13.2492 8.2 12.8425 7.79333 12.3225 7.5C11.8025 7.19333 11.1958 7.04 10.5025 7.04C9.80917 7.04 9.2025 7.19333 8.6825 7.5C8.1625 7.79333 7.74917 8.2 7.4425 8.72C7.14917 9.24 7.0025 9.84667 7.0025 10.54C7.0025 11.22 7.14917 11.8267 7.4425 12.36C7.74917 12.88 8.1625 13.2933 8.6825 13.6C9.2025 13.8933 9.80917 14.04 10.5025 14.04Z" fill="#7E7E7E"/>
</svg>
