<svg width="24" height="24" viewBox="0 0 24 24" fill="none" xmlns="http://www.w3.org/2000/svg">
<path d="M5.21403 7.07374C5.59823 3.61595 8.52093 1 12 1V1C15.4791 1 18.4018 3.61595 18.786 7.07374L19.0937 9.84355C19.1403 10.2625 19.1636 10.472 19.1974 10.6779C19.3384 11.5362 19.6184 12.3658 20.0264 13.134C20.1243 13.3183 20.2328 13.499 20.4496 13.8605L21.1826 15.0821C21.9884 16.425 22.3912 17.0965 22.104 17.6038C21.8168 18.1111 21.0337 18.1111 19.4676 18.1111H4.53238C2.96627 18.1111 2.18322 18.1111 1.89599 17.6038C1.60876 17.0965 2.01164 16.425 2.8174 15.0821L3.55036 13.8605C3.76725 13.499 3.87569 13.3183 3.97356 13.134C4.38161 12.3658 4.66164 11.5362 4.80262 10.6779C4.83644 10.472 4.85972 10.2625 4.90627 9.84355L5.21403 7.07374Z" stroke="#9B1CBB" stroke-width="2"/>
<path d="M8.45811 18.9235C8.66702 20.093 9.12735 21.1264 9.76771 21.8634C10.4081 22.6005 11.1927 23 11.9998 23C12.807 23 13.5916 22.6005 14.232 21.8634C14.8723 21.1264 15.3327 20.093 15.5416 18.9235" stroke="#9B1CBB" stroke-width="2" stroke-linecap="round"/>
</svg>
