<svg width="12" height="19" viewBox="0 0 12 19" fill="none" xmlns="http://www.w3.org/2000/svg">
<path d="M8.68408 6.28281L0.159934 14.8072C-0.0533112 15.0204 -0.0533112 15.3662 0.159934 15.5794L2.54328 17.9629C2.75653 18.1762 3.10227 18.1762 3.31551 17.9629L11.8399 9.43859C12.0531 9.22535 12.0531 8.87961 11.8399 8.66636L9.45652 6.28281C9.24327 6.06957 8.89753 6.06957 8.68408 6.28281Z" fill="#717171"/>
<path d="M8.68408 11.8401L0.159934 3.31573C-0.0533112 3.10249 -0.0533112 2.75675 0.159934 2.5435L2.54348 0.159952C2.75673 -0.0532932 3.10247 -0.0532932 3.31571 0.159952L11.8401 8.6843C12.0533 8.89755 12.0533 9.24329 11.8401 9.45654L9.45652 11.8401C9.24327 12.0533 8.89753 12.0533 8.68408 11.8401Z" fill="#717171"/>
</svg>
