<svg width="33" height="27" viewBox="0 0 33 27" fill="none" xmlns="http://www.w3.org/2000/svg">
<path d="M26.3469 19.1308H11.5009C10.9453 19.1308 10.455 18.768 10.2925 18.2365L5.48746 2.52728H1.26364C0.565751 2.52728 0 1.96153 0 1.26364C0 0.565751 0.565751 0 1.26364 0H6.42255C6.97819 0 7.46849 0.362846 7.63095 0.893937L12.436 16.6035H25.5072L29.3288 7.50856H16.2468C15.5489 7.50856 14.9832 6.94281 14.9832 6.24492C14.9832 5.54703 15.5489 4.98128 16.2468 4.98128H31.23C31.6532 4.98128 32.0485 5.19321 32.2824 5.54558C32.5164 5.89796 32.559 6.34421 32.3951 6.73449L27.5117 18.3568C27.3145 18.8257 26.8556 19.1308 26.3469 19.1308Z" fill="#CCD2E3"/>
<path d="M10.4269 26.8917C11.6552 26.8917 12.6509 25.896 12.6509 24.6677C12.6509 23.4395 11.6552 22.4437 10.4269 22.4437C9.1986 22.4437 8.20288 23.4395 8.20288 24.6677C8.20288 25.896 9.1986 26.8917 10.4269 26.8917Z" fill="#CCD2E3"/>
<path d="M26.9301 26.8917C28.1584 26.8917 29.1541 25.896 29.1541 24.6677C29.1541 23.4395 28.1584 22.4437 26.9301 22.4437C25.7018 22.4437 24.7061 23.4395 24.7061 24.6677C24.7061 25.896 25.7018 26.8917 26.9301 26.8917Z" fill="#CCD2E3"/>
</svg>
