<svg width="20" height="20" viewBox="0 0 20 20" fill="none" xmlns="http://www.w3.org/2000/svg">
<path d="M10 20C15.5228 20 20 15.5228 20 10C20 4.47715 15.5228 0 10 0C4.47715 0 0 4.47715 0 10C0 15.5228 4.47715 20 10 20Z" fill="#FFC843"/>
<path d="M9.99995 17.7778C14.2955 17.7778 17.7777 14.2956 17.7777 10C17.7777 5.70446 14.2955 2.22223 9.99995 2.22223C5.7044 2.22223 2.22217 5.70446 2.22217 10C2.22217 14.2956 5.7044 17.7778 9.99995 17.7778Z" fill="#D38700"/>
<path d="M10.3385 5.8593L11.4539 8.11908C11.509 8.23041 11.6152 8.30775 11.7381 8.32575L14.2319 8.68819C14.5417 8.7333 14.6652 9.11375 14.4412 9.33219L12.6368 11.0911C12.5479 11.1777 12.5072 11.3029 12.5281 11.4253L12.9541 13.9089C13.007 14.2173 12.6832 14.4526 12.4063 14.3069L10.1759 13.1342C10.0659 13.0764 9.93455 13.0764 9.82455 13.1342L7.5941 14.3069C7.31699 14.4524 6.99344 14.2173 7.04633 13.9089L7.47233 11.4253C7.49344 11.3029 7.45277 11.1777 7.36366 11.0911L5.55922 9.33219C5.33522 9.11375 5.45877 8.73308 5.76855 8.68819L8.26233 8.32575C8.38522 8.30797 8.49166 8.23064 8.54655 8.11908L9.66188 5.8593C9.79988 5.57864 10.1999 5.57864 10.3385 5.8593Z" fill="#FFC843"/>
</svg>
