<svg width="31" height="31" viewBox="0 0 31 31" fill="none" xmlns="http://www.w3.org/2000/svg">
<g filter="url(#filter0_d_225_435)">
<circle cx="15.2885" cy="11.2885" r="10.2885" fill="url(#paint0_linear_225_435)" stroke="white" stroke-width="2"/>
<path d="M15.3918 18.2333C19.1702 18.2333 22.2333 15.1702 22.2333 11.3918C22.2333 7.61333 19.1702 4.55029 15.3918 4.55029C11.6133 4.55029 8.55029 7.61333 8.55029 11.3918C8.55029 15.1702 11.6133 18.2333 15.3918 18.2333Z" fill="#FFC843"/>
<path d="M15.3917 16.7129C18.3305 16.7129 20.7129 14.3305 20.7129 11.3917C20.7129 8.45292 18.3305 6.07056 15.3917 6.07056C12.4529 6.07056 10.0706 8.45292 10.0706 11.3917C10.0706 14.3305 12.4529 16.7129 15.3917 16.7129Z" fill="#D38700"/>
<path d="M15.6234 8.55917L16.3865 10.1052C16.4242 10.1814 16.4969 10.2343 16.5809 10.2466L18.287 10.4946C18.499 10.5254 18.5835 10.7857 18.4303 10.9351L17.1958 12.1385C17.1349 12.1978 17.1071 12.2834 17.1214 12.3671L17.4129 14.0663C17.449 14.2773 17.2275 14.4383 17.0381 14.3386L15.5121 13.5363C15.4369 13.4968 15.347 13.4968 15.2718 13.5363L13.7458 14.3386C13.5562 14.4381 13.3349 14.2773 13.3711 14.0663L13.6625 12.3671C13.6769 12.2834 13.6491 12.1978 13.5882 12.1385L12.3537 10.9351C12.2004 10.7857 12.2849 10.5253 12.4969 10.4946L14.203 10.2466C14.2871 10.2344 14.3599 10.1815 14.3974 10.1052L15.1605 8.55917C15.2549 8.36716 15.5286 8.36716 15.6234 8.55917Z" fill="#FFC843"/>
</g>
<defs>
<filter id="filter0_d_225_435" x="0" y="0" width="30.5769" height="30.5769" filterUnits="userSpaceOnUse" color-interpolation-filters="sRGB">
<feFlood flood-opacity="0" result="BackgroundImageFix"/>
<feColorMatrix in="SourceAlpha" type="matrix" values="0 0 0 0 0 0 0 0 0 0 0 0 0 0 0 0 0 0 127 0" result="hardAlpha"/>
<feOffset dy="4"/>
<feGaussianBlur stdDeviation="2"/>
<feComposite in2="hardAlpha" operator="out"/>
<feColorMatrix type="matrix" values="0 0 0 0 0 0 0 0 0 0 0 0 0 0 0 0 0 0 0.25 0"/>
<feBlend mode="normal" in2="BackgroundImageFix" result="effect1_dropShadow_225_435"/>
<feBlend mode="normal" in="SourceGraphic" in2="effect1_dropShadow_225_435" result="shape"/>
</filter>
<linearGradient id="paint0_linear_225_435" x1="21.9143" y1="20.3683" x2="11.1166" y2="-3.92642" gradientUnits="userSpaceOnUse">
<stop stop-color="#781691"/>
<stop offset="1" stop-color="#BC37DE"/>
</linearGradient>
</defs>
</svg>
