<svg width="24" height="24" viewBox="0 0 24 24" fill="none" xmlns="http://www.w3.org/2000/svg">
<path fill-rule="evenodd" clip-rule="evenodd" d="M12 3C8.68629 3 6 5.68629 6 9C6 11.1458 7.09211 12.9159 8.45503 14.2906C9.77773 15.6248 11.2766 16.5032 12 16.8837C12.7234 16.5032 14.2223 15.6248 15.545 14.2906C16.9079 12.9159 18 11.1458 18 9C18 5.68629 15.3137 3 12 3ZM4 9C4 4.58172 7.58172 1 12 1C16.4183 1 20 4.58172 20 9C20 11.8706 18.5326 14.1178 16.9653 15.6987C15.397 17.2805 13.6448 18.2838 12.8585 18.6917C12.3169 18.9726 11.6831 18.9726 11.1415 18.6917C10.3552 18.2838 8.60299 17.2805 7.03474 15.6987C5.46741 14.1178 4 11.8706 4 9ZM12 7C10.8954 7 10 7.89543 10 9C10 10.1046 10.8954 11 12 11C13.1046 11 14 10.1046 14 9C14 7.89543 13.1046 7 12 7ZM8 9C8 6.79086 9.79086 5 12 5C14.2091 5 16 6.79086 16 9C16 11.2091 14.2091 13 12 13C9.79086 13 8 11.2091 8 9Z" fill="#BC37DE"/>
<path fill-rule="evenodd" clip-rule="evenodd" d="M18.9282 17C19.2043 16.5217 19.8159 16.3578 20.2942 16.634C21.1626 17.1353 22 17.9121 22 19L20 19L19.9995 18.9967C19.9989 18.9937 19.9973 18.9868 19.9929 18.9756C19.9839 18.9529 19.9625 18.9105 19.9139 18.85C19.8127 18.7241 19.621 18.5547 19.2942 18.366C18.8159 18.0899 18.6521 17.4783 18.9282 17ZM5.0718 17C5.34794 17.4783 5.18406 18.0899 4.70577 18.366C4.37902 18.5547 4.18735 18.7241 4.08607 18.85C4.0375 18.9105 4.01611 18.9529 4.00713 18.9756C4.00271 18.9868 4.00108 18.9937 4.00049 18.9967L4.00003 18.9995L4.00049 19.0033C4.00108 19.0063 4.00271 19.0132 4.00713 19.0244C4.01611 19.047 4.0375 19.0895 4.08607 19.1499C4.18735 19.2759 4.37902 19.4453 4.70577 19.634C5.36238 20.0131 6.37875 20.3639 7.68898 20.6161C8.98725 20.8659 10.4753 21 12 21C13.5247 21 15.0127 20.8659 16.311 20.6161C17.6213 20.3639 18.6376 20.0131 19.2942 19.634C19.621 19.4453 19.8127 19.2759 19.9139 19.1499C19.9625 19.0895 19.9839 19.047 19.9929 19.0244C19.9973 19.0132 19.9989 19.0063 19.9995 19.0033L20 19L22 19C22 20.0879 21.1626 20.8647 20.2942 21.366C19.371 21.899 18.1151 22.3056 16.689 22.58C15.2509 22.8568 13.635 23 12 23C10.365 23 8.74909 22.8568 7.31102 22.58C5.88491 22.3056 4.62899 21.899 3.70577 21.366C2.83745 20.8647 2 20.0879 2 19C2 17.9121 2.83745 17.1353 3.70577 16.634C4.18406 16.3578 4.79565 16.5217 5.0718 17Z" fill="#BC37DE"/>
</svg>
