<svg width="18" height="10" viewBox="0 0 18 10" fill="none" xmlns="http://www.w3.org/2000/svg">
<path d="M3.82759 8.51993H2.85323C2.47908 8.51993 2.17578 8.21663 2.17578 7.84249C2.17578 7.46834 2.47908 7.16504 2.85323 7.16504H3.82779C4.20193 7.16504 4.50523 7.46834 4.50523 7.84249C4.50523 8.21663 4.20193 8.51993 3.82759 8.51993Z" fill="#717171"/>
<path d="M5.86789 9.85639C6.49068 9.85639 6.99555 9.35152 6.99555 8.72873C6.99555 8.10594 6.49068 7.60107 5.86789 7.60107C5.2451 7.60107 4.74023 8.10594 4.74023 8.72873C4.74023 9.35152 5.2451 9.85639 5.86789 9.85639Z" fill="#717171"/>
<path d="M13.9236 9.85639C14.5463 9.85639 15.0512 9.35152 15.0512 8.72873C15.0512 8.10594 14.5463 7.60107 13.9236 7.60107C13.3008 7.60107 12.7959 8.10594 12.7959 8.72873C12.7959 9.35152 13.3008 9.85639 13.9236 9.85639Z" fill="#717171"/>
<path d="M17.3341 4.75142L15.9268 2.23461C15.8072 2.02054 15.5809 1.88776 15.3355 1.88776H12.2268V0.677447C12.2268 0.303303 11.9235 0 11.5493 0H2.85323C2.47908 0 2.17578 0.303303 2.17578 0.677447C2.17578 1.05159 2.47908 1.35489 2.85323 1.35489H10.8719V2.5652V7.16526H7.98557C7.61142 7.16526 7.30812 7.46857 7.30812 7.84271C7.30812 8.21686 7.61142 8.52016 7.98557 8.52016H11.5493C11.9235 8.52016 12.2268 8.21686 12.2268 7.84271V3.24265H14.9381L16.0654 5.25854V7.16526C15.6941 7.16875 15.3943 7.4707 15.3943 7.84271C15.3943 8.21686 15.6976 8.52016 16.0718 8.52016H16.7428C17.117 8.52016 17.4203 8.21686 17.4203 7.84271V5.08202C17.4203 4.96627 17.3907 4.85227 17.3341 4.75142Z" fill="#717171"/>
<path d="M4.46283 6.27921H0.677447C0.303303 6.27921 0 5.97591 0 5.60176C0 5.22762 0.303303 4.92432 0.677447 4.92432H4.46283C4.83697 4.92432 5.14028 5.22762 5.14028 5.60176C5.14028 5.97591 4.83697 6.27921 4.46283 6.27921Z" fill="#717171"/>
<path d="M6.87667 3.8505H0.677447C0.303303 3.8505 0 3.5472 0 3.17305C0 2.79891 0.303303 2.49561 0.677447 2.49561H6.87667C7.25082 2.49561 7.55412 2.79891 7.55412 3.17305C7.55412 3.5472 7.25082 3.8505 6.87667 3.8505Z" fill="#717171"/>
</svg>
