<svg width="20" height="16" viewBox="0 0 20 16" fill="none" xmlns="http://www.w3.org/2000/svg">
<path d="M9.63001 15.0664C8.62919 15.0664 7.81494 14.2522 7.81494 13.2512C7.81494 13.1131 7.83067 12.9749 7.86148 12.8413C7.88804 12.7268 8.00235 12.6558 8.11646 12.6819C8.23078 12.7083 8.30217 12.8224 8.27583 12.9367C8.25224 13.0391 8.24013 13.1449 8.24013 13.251C8.24013 14.0174 8.86378 14.6413 9.63022 14.6413C10.3967 14.6413 11.0205 14.0174 11.0205 13.251C11.0205 13.1453 11.0084 13.0395 10.9848 12.9365C10.9585 12.8222 11.0299 12.7083 11.1444 12.6819C11.2583 12.6554 11.3726 12.7272 11.399 12.8415C11.43 12.9756 11.4455 13.1133 11.4455 13.2512C11.4453 14.2522 10.631 15.0664 9.63001 15.0664Z" fill="white"/>
<path d="M15.1848 13.8988C15.1073 13.8988 15.0327 13.8563 14.9951 13.7825C14.7208 13.2422 14.6734 12.6275 14.8617 12.0516C15.0499 11.4758 15.4509 11.0075 15.9912 10.7334C16.5316 10.4592 17.1465 10.4116 17.7222 10.5999C18.2982 10.788 18.7663 11.1891 19.0404 11.7295C19.0659 11.7796 19.0706 11.8381 19.053 11.8916C19.0355 11.9452 18.9975 11.9896 18.9471 12.0151L15.2805 13.8758C15.2501 13.8913 15.2171 13.8988 15.1848 13.8988ZM17.0161 10.9116C16.7301 10.9116 16.446 10.9788 16.1835 11.112C15.7445 11.3349 15.4184 11.7153 15.2656 12.1834C15.1349 12.5835 15.1443 13.0065 15.2885 13.395L18.5549 11.7374C18.3265 11.3912 17.9905 11.1341 17.5904 11.0034C17.4019 10.9422 17.2086 10.9116 17.0161 10.9116Z" fill="white"/>
<path d="M14.9659 13.1017H7.79064C7.57901 13.1017 7.38182 13.0176 7.23541 12.8644C7.0888 12.7112 7.01315 12.5099 7.0225 12.2981C7.08774 10.8162 7.52376 10.3075 8.23432 9.64603C8.27363 9.60927 8.32547 9.58888 8.37923 9.58888H11.3443C11.4019 9.58888 11.4567 9.61204 11.4966 9.65326C11.5366 9.69448 11.5582 9.75015 11.5568 9.80752C11.5374 10.4809 11.5676 10.9078 11.6547 11.1917C11.7314 11.4422 11.9747 11.6171 12.2459 11.6171H13.5025C13.7794 11.6171 14.0044 11.3918 14.0044 11.1152V6.61852C14.0044 6.12172 14.4083 5.71758 14.9051 5.71758H15.9404C16.4372 5.71758 16.8411 6.12172 16.8411 6.61852C16.8411 7.1151 16.4372 7.51925 15.9404 7.51925H15.4761C15.4361 7.51925 15.4138 7.54326 15.4041 7.55771C15.3947 7.57152 15.3811 7.60021 15.3953 7.63591C15.4916 7.87517 15.6775 8.09615 15.893 8.3522C16.3388 8.88214 16.8936 9.5417 16.8936 10.7274C16.8936 10.8449 16.7986 10.9399 16.6811 10.9399C16.5636 10.9399 16.4686 10.8449 16.4686 10.7274C16.4686 9.69661 15.9899 9.12778 15.5677 8.62567C15.339 8.35369 15.1227 8.09679 15.0012 7.79421C14.9381 7.63739 14.9572 7.45997 15.052 7.31973C15.1474 7.17864 15.3059 7.09428 15.4761 7.09428H15.9404C16.2026 7.09428 16.4161 6.88094 16.4161 6.61852C16.4161 6.3561 16.2026 6.14255 15.9404 6.14255H14.9051C14.6429 6.14255 14.4294 6.3561 14.4294 6.61852V11.115C14.4294 11.626 14.0135 12.0418 13.5025 12.0418H12.2456C11.7896 12.0418 11.3793 11.7435 11.2482 11.316C11.1562 11.0161 11.1188 10.6196 11.1271 10.0138H8.46295C7.8529 10.5871 7.50464 11.0102 7.44705 12.3168C7.4428 12.4118 7.4768 12.5021 7.54246 12.5707C7.6079 12.6389 7.69609 12.6767 7.79064 12.6767H14.9659C15.0834 12.6767 15.1784 12.7717 15.1784 12.8892C15.1784 13.0067 15.0832 13.1017 14.9659 13.1017Z" fill="white"/>
<path d="M11.3441 10.0139H7.4573C6.78945 10.0139 6.24634 9.47059 6.24634 8.80295V8.71074C6.24634 8.39859 6.50005 8.14488 6.81219 8.14488H10.9907C11.3029 8.14488 11.5566 8.39859 11.5566 8.71074V9.80143C11.5566 9.91894 11.4614 10.0139 11.3441 10.0139ZM6.81219 8.56986C6.73463 8.56986 6.67131 8.63318 6.67131 8.71074V8.80295C6.67131 9.23643 7.02404 9.58894 7.4573 9.58894H11.1316V8.71074C11.1316 8.63318 11.0683 8.56986 10.9907 8.56986H6.81219Z" fill="white"/>
<path d="M8.75826 8.56974H5.59646C5.17361 8.56974 4.82959 8.22573 4.82959 7.80309V4.8406C4.82959 4.41775 5.17361 4.07373 5.59646 4.07373H8.75826C9.18111 4.07373 9.52513 4.41775 9.52513 4.8406V7.80309C9.52513 8.22573 9.18111 8.56974 8.75826 8.56974ZM5.59646 4.4987C5.40798 4.4987 5.25456 4.65212 5.25456 4.8406V7.80309C5.25456 7.99157 5.40798 8.14477 5.59646 8.14477H8.75826C8.94674 8.14477 9.10015 7.99135 9.10015 7.80309V4.8406C9.10015 4.65212 8.94674 4.4987 8.75826 4.4987H5.59646Z" fill="white"/>
<path d="M13.882 11.9316C13.7895 11.9316 13.7045 11.8709 13.6778 11.7774C13.6074 11.53 13.4262 11.3764 13.1077 11.2942C13.0131 11.27 12.9472 11.1839 12.9483 11.0862L12.984 7.7006C12.9863 7.47388 12.8108 7.2888 12.5843 7.27924L11.7894 7.231C11.7273 7.22718 11.67 7.19658 11.6328 7.14686C11.5952 7.09735 11.5816 7.03382 11.5947 6.97304L11.9156 5.51963C11.9513 5.35793 12.058 5.22598 12.2084 5.15734C12.3591 5.08871 12.5288 5.09466 12.674 5.17328L14.3983 6.10907C14.5014 6.16496 14.5398 6.29415 14.4837 6.3972C14.428 6.50026 14.2989 6.53872 14.1958 6.48262L12.4715 5.54704C12.4343 5.52686 12.4013 5.53663 12.385 5.54407C12.3686 5.55151 12.3397 5.57021 12.3306 5.61143L12.0633 6.82197L12.6062 6.8549C13.0594 6.87403 13.4138 7.24779 13.409 7.70506L13.375 10.9323C13.7483 11.0681 13.9874 11.3125 14.0866 11.6607C14.1187 11.7736 14.0534 11.8913 13.9404 11.9234C13.9211 11.9293 13.9013 11.9316 13.882 11.9316Z" fill="white"/>
<path d="M12.2456 12.0419C12.1298 12.0419 12.0351 11.9488 12.0331 11.8328L11.9849 8.77195C11.9736 8.66422 11.8702 8.57009 11.7448 8.57009H11.0893C10.7161 8.57009 10.3655 8.40541 10.1273 8.11791C9.88936 7.83063 9.79246 7.45559 9.86173 7.08905L10.5984 3.18588C10.6634 2.92176 10.8215 2.71076 11.0461 2.57986C11.2709 2.44897 11.5323 2.4154 11.7828 2.48552C12.1281 2.58199 12.3878 2.86035 12.46 3.2118C12.4908 3.36182 12.5644 3.5709 12.7407 3.71625L15.2294 5.76632C15.3201 5.8409 15.3328 5.97477 15.2583 6.0655C15.1839 6.15623 15.0502 6.16898 14.9593 6.0944L12.4706 4.04433C12.2552 3.8669 12.1077 3.60851 12.0438 3.29722C12.0038 3.10237 11.86 2.94811 11.6683 2.89456C11.5298 2.85589 11.3846 2.87437 11.2601 2.94704C11.1356 3.01971 11.048 3.13658 11.0134 3.2764L10.2793 7.16788C10.2336 7.40969 10.2975 7.65724 10.4546 7.84678C10.6118 8.03653 10.843 8.14511 11.0893 8.14511H11.7448C12.0901 8.14511 12.3755 8.40435 12.4088 8.74815L12.4579 11.8262C12.4598 11.9435 12.3661 12.0402 12.2488 12.0421C12.248 12.0419 12.2467 12.0419 12.2456 12.0419Z" fill="white"/>
<path d="M12.8839 2.88743C12.7664 2.88743 12.6714 2.79224 12.6714 2.67495C12.6714 2.55765 12.7664 2.46246 12.8839 2.46246C13.3386 2.46246 13.7083 2.09252 13.7083 1.63801C13.7083 1.52072 13.8033 1.42552 13.9208 1.42552C14.0383 1.42552 14.1333 1.52072 14.1333 1.63801C14.1333 2.32689 13.5728 2.88743 12.8839 2.88743Z" fill="white"/>
<path d="M9.62997 14.214C9.09089 14.214 8.6521 13.7754 8.6521 13.2361C8.6521 13.0821 8.68886 12.9287 8.75856 12.792C8.81168 12.6875 8.93981 12.6459 9.04435 12.6992C9.14889 12.7525 9.19054 12.8804 9.13721 12.985C9.09726 13.0632 9.07707 13.1478 9.07707 13.2361C9.07707 13.5411 9.32505 13.789 9.62997 13.789C9.93488 13.789 10.1829 13.5411 10.1829 13.2361C10.1829 13.1478 10.1627 13.0634 10.1227 12.9848C10.0696 12.8802 10.1112 12.7523 10.2158 12.699C10.3195 12.6463 10.4483 12.6873 10.5016 12.792C10.5711 12.9287 10.6078 13.0821 10.6078 13.2359C10.6078 13.7754 10.169 14.214 9.62997 14.214Z" fill="white"/>
<path d="M17.3387 14.2879C16.7996 14.2879 16.3608 13.8494 16.3608 13.3101C16.3608 13.1371 16.4067 12.9667 16.4939 12.8177C16.5529 12.7166 16.6834 12.682 16.7843 12.7415C16.8859 12.8005 16.9199 12.9308 16.8606 13.0319C16.8117 13.1161 16.7856 13.2123 16.7856 13.3103C16.7856 13.6152 17.0336 13.8632 17.3385 13.8632C17.6434 13.8632 17.8914 13.6152 17.8914 13.3103C17.8914 13.0283 17.6806 12.7922 17.4008 12.761C17.2841 12.7478 17.2002 12.6429 17.2129 12.5264C17.2263 12.4096 17.3332 12.3275 17.4475 12.3386C17.9428 12.3938 18.3161 12.8116 18.3161 13.3103C18.3164 13.8494 17.8778 14.2879 17.3387 14.2879Z" fill="white"/>
<path d="M17.2968 15.0663C16.3693 15.0663 15.5892 14.3724 15.4821 13.4523C15.4687 13.3358 15.552 13.2302 15.6687 13.2169C15.787 13.2033 15.8905 13.287 15.9041 13.4034C15.9864 14.1091 16.5849 14.6414 17.2968 14.6414C18.07 14.6414 18.699 14.0124 18.699 13.2392C18.699 12.8509 18.5356 12.4765 18.2513 12.212C18.1654 12.1321 18.1603 11.9976 18.2402 11.9118C18.3205 11.8257 18.4548 11.8212 18.5404 11.9007C18.9112 12.2456 19.1239 12.7334 19.1239 13.2394C19.1239 14.2468 18.3044 15.0663 17.2968 15.0663Z" fill="white"/>
<path d="M12.8839 3.2757C11.9809 3.2757 11.2461 2.54092 11.2461 1.63785C11.2461 0.73478 11.9809 0 12.8839 0C13.787 0 14.5218 0.73478 14.5218 1.63785C14.5218 1.75514 14.4268 1.85034 14.3093 1.85034H13.0964V3.06321C13.0964 3.18072 13.0014 3.2757 12.8839 3.2757ZM12.8839 0.425187C12.2152 0.425187 11.6711 0.969366 11.6711 1.63806C11.6711 2.23451 12.1035 2.73152 12.6715 2.83224V1.63806C12.6715 1.52077 12.7664 1.42558 12.8839 1.42558H14.0781C13.9774 0.857598 13.4802 0.425187 12.8839 0.425187Z" fill="white"/>
<path d="M11.3976 7.24112C10.9454 7.24112 10.6828 7.18715 10.0687 6.9821C9.95754 6.94491 9.8974 6.82464 9.93459 6.7133C9.97177 6.60217 10.0914 6.54161 10.2036 6.57922C10.9229 6.81954 11.0892 6.83293 11.7943 6.8068C11.9109 6.80191 12.0104 6.89413 12.0144 7.01121C12.0189 7.1285 11.9273 7.22709 11.81 7.23156C11.6523 7.23708 11.518 7.24112 11.3976 7.24112Z" fill="white"/>
<path d="M0.212487 13.1624C0.0951942 13.1624 0 13.0674 0 12.9499C0 12.8326 0.0951942 12.7374 0.212487 12.7374L6.07118 12.737C6.18847 12.737 6.28367 12.8319 6.28367 12.9494C6.28367 13.0667 6.18847 13.1619 6.07118 13.1619L0.212487 13.1624Z" fill="white"/>
<path d="M6.39607 10.9872H0.212487C0.0951942 10.9872 0 10.8922 0 10.7747C0 10.6572 0.0951942 10.5623 0.212487 10.5623H6.39607C6.51336 10.5623 6.60856 10.6572 6.60856 10.7747C6.60856 10.8922 6.51336 10.9872 6.39607 10.9872Z" fill="white"/>
<path d="M4.33452 8.81232H0.212487C0.0951942 8.81232 0 8.71734 0 8.59983C0 8.48233 0.0951942 8.38734 0.212487 8.38734H4.33452C4.45182 8.38734 4.54701 8.48233 4.54701 8.59983C4.54701 8.71734 4.45182 8.81232 4.33452 8.81232Z" fill="white"/>
<path d="M4.00177 6.63698H0.212487C0.0951942 6.63698 0 6.54179 0 6.42449C0 6.3072 0.0951942 6.21201 0.212487 6.21201H4.00177C4.11906 6.21201 4.21425 6.3072 4.21425 6.42449C4.21425 6.54179 4.11906 6.63698 4.00177 6.63698Z" fill="white"/>
</svg>
