<svg width="21" height="21" viewBox="0 0 21 21" fill="none" xmlns="http://www.w3.org/2000/svg">
<g clip-path="url(#clip0_63_655)">
<path d="M16.6249 10.5404C16.1411 10.5404 15.75 10.9324 15.75 11.4153V18.4154C15.75 18.8975 15.3579 19.2903 14.8751 19.2903H2.625C2.14194 19.2903 1.75005 18.8975 1.75005 18.4154V6.16531C1.75005 5.68322 2.14194 5.29037 2.625 5.29037H9.62505C10.1089 5.29037 10.5 4.89832 10.5 4.41542C10.5 3.93237 10.1089 3.54031 9.62505 3.54031H2.625C1.17776 3.54031 0 4.71807 0 6.16531V18.4154C0 19.8626 1.17776 21.0404 2.625 21.0404H14.8751C16.3223 21.0404 17.5001 19.8626 17.5001 18.4154V11.4153C17.5001 10.9315 17.1088 10.5404 16.6249 10.5404Z" fill="#717171"/>
<path d="M8.20374 9.74318C8.14254 9.80438 8.10137 9.88225 8.0839 9.9662L7.4653 13.0603C7.43646 13.2037 7.48197 13.3516 7.58515 13.4557C7.6683 13.5389 7.78029 13.5834 7.89501 13.5834C7.92288 13.5834 7.95188 13.5809 7.98072 13.5748L11.0739 12.9562C11.1596 12.9386 11.2375 12.8975 11.2979 12.8362L18.2208 5.91318L15.1277 2.82019L8.20374 9.74318Z" fill="#717171"/>
<path d="M20.3588 0.680914C19.5058 -0.172243 18.118 -0.172243 17.2656 0.680914L16.0547 1.89184L19.1478 4.98499L20.3588 3.77391C20.7718 3.36183 20.9993 2.81228 20.9993 2.22781C20.9993 1.64334 20.7718 1.09379 20.3588 0.680914Z" fill="#717171"/>
</g>
<defs>
<clipPath id="clip0_63_655">
<rect width="21" height="21" fill="white"/>
</clipPath>
</defs>
</svg>
