<svg width="33" height="33" viewBox="0 0 33 33" fill="none" xmlns="http://www.w3.org/2000/svg">
<path d="M16.5 33C7.43407 33 0 25.6264 0 16.5C0 7.43406 7.37363 0 16.5 0C25.5659 0 33 7.37363 33 16.5C33 25.5659 25.6264 33 16.5 33ZM16.5 1.75275C8.4011 1.75275 1.75275 8.34066 1.75275 16.5C1.75275 24.5989 8.34066 31.2473 16.5 31.2473C24.5989 31.2473 31.2472 24.6593 31.2472 16.5C31.2472 8.4011 24.6593 1.75275 16.5 1.75275Z" fill="white"/>
<path fill-rule="evenodd" clip-rule="evenodd" d="M13.9016 16.5604V26.1099C13.9016 26.2308 14.0225 26.3516 14.1433 26.3516H17.7093C17.8302 26.3516 17.951 26.2308 17.951 26.1099V16.4396H20.5499C20.6708 16.4396 20.7917 16.3187 20.7917 16.1978L21.0334 13.2967C21.0334 13.1758 20.9126 13.0549 20.7917 13.0549H17.951V11C17.951 10.5165 18.3741 10.0934 18.8576 10.0934H20.8521C20.973 10.0934 21.0939 9.97252 21.0939 9.85164V6.95054C21.0939 6.82966 20.973 6.70879 20.8521 6.70879H17.528C15.5334 6.70879 13.962 8.28021 13.962 10.2747V13.1154H12.2093C12.0884 13.1154 11.9675 13.2363 11.9675 13.3571V16.2582C11.9675 16.3791 12.0884 16.5 12.2093 16.5H13.962V16.5604H13.9016Z" fill="white"/>
</svg>
