<svg width="33" height="33" viewBox="0 0 33 33" fill="none" xmlns="http://www.w3.org/2000/svg">
<path d="M16.5 33C7.43407 33 0 25.6264 0 16.5C0 7.43406 7.37363 0 16.5 0C25.5659 0 33 7.37363 33 16.5C33 25.5659 25.6264 33 16.5 33ZM16.5 1.75275C8.4011 1.75275 1.75275 8.34066 1.75275 16.5C1.75275 24.5989 8.34066 31.2473 16.5 31.2473C24.5989 31.2473 31.2472 24.6593 31.2472 16.5C31.2472 8.4011 24.6593 1.75275 16.5 1.75275Z" fill="white"/>
<path d="M18.1538 15.3077V17.6154H23.6C23.0462 20.8462 20.4615 23.1538 17.2308 23.1538C13.4462 23.1538 10.3077 20.0154 10.3077 16.2308C10.3077 12.4462 13.4462 9.30769 17.2308 9.30769C19.1692 9.30769 20.8308 10.1385 22.0308 11.4308L23.6923 9.76923C22.0308 8.10769 19.8154 7 17.2308 7C12.1538 7 8 11.1538 8 16.2308C8 21.3077 12.1538 25.4615 17.2308 25.4615C22.3077 25.4615 26 21.3077 26 16.2308V15.3077H18.1538Z" fill="white"/>
</svg>
