<svg width="34" height="34" viewBox="0 0 34 34" fill="none" xmlns="http://www.w3.org/2000/svg">
<path fill-rule="evenodd" clip-rule="evenodd" d="M17 33.5C26.1127 33.5 33.5 26.1127 33.5 17C33.5 7.8873 26.1127 0.5 17 0.5C7.8873 0.5 0.5 7.8873 0.5 17C0.5 26.1127 7.8873 33.5 17 33.5ZM25.4857 12.4603C26.016 11.8239 25.93 10.878 25.2936 10.3477C24.6572 9.81732 23.7113 9.90331 23.181 10.5397L15.4164 19.8573C15.278 20.0234 15.1652 20.1586 15.0657 20.274C14.9562 20.1681 14.8316 20.0436 14.6787 19.8907L10.7273 15.9393C10.1415 15.3536 9.19179 15.3536 8.60601 15.9393C8.02022 16.5251 8.02022 17.4749 8.60601 18.0607L12.5574 22.012L12.6093 22.064L12.6094 22.064C12.9252 22.3801 13.2621 22.7173 13.583 22.96C13.956 23.242 14.4988 23.5484 15.2128 23.516C15.9267 23.4836 16.4395 23.1294 16.7854 22.8147C17.083 22.544 17.3881 22.1777 17.674 21.8343L17.721 21.7778L25.4857 12.4603Z" fill="#22C33F"/>
</svg>
