<svg width="24" height="21" viewBox="0 0 24 21" fill="none" xmlns="http://www.w3.org/2000/svg">
<path d="M21.6302 2.02329C20.414 0.718575 18.7452 0 16.9309 0C15.5747 0 14.3328 0.424089 13.2394 1.26039C12.6877 1.68253 12.1877 2.19899 11.747 2.80179C11.3064 2.19916 10.8063 1.68253 10.2544 1.26039C9.1612 0.424089 7.91921 0 6.56304 0C4.74873 0 3.07978 0.718575 1.86361 2.02329C0.661951 3.31275 0 5.07435 0 6.98381C0 8.94913 0.74046 10.7481 2.33018 12.6455C3.75231 14.3428 5.79624 16.0657 8.16316 18.0608C8.97138 18.7422 9.8875 19.5145 10.8387 20.3371C11.09 20.5548 11.4125 20.6747 11.747 20.6747C12.0813 20.6747 12.4039 20.5548 12.6549 20.3375C13.6061 19.5146 14.5228 18.742 15.3313 18.0603C17.6979 16.0656 19.7418 14.3428 21.164 12.6454C22.7537 10.7481 23.494 8.94913 23.494 6.98364C23.494 5.07435 22.832 3.31275 21.6302 2.02329Z" fill="white"/>
</svg>
