<svg width="35" height="35" viewBox="0 0 35 35" fill="none" xmlns="http://www.w3.org/2000/svg">
<path d="M7.29163 18.6077C7.29163 16.6277 7.29163 15.6376 7.69188 14.7674C8.09214 13.8972 8.84383 13.2528 10.3472 11.9642L11.8055 10.7142C14.5229 8.38509 15.8815 7.22052 17.5 7.22052C19.1184 7.22052 20.477 8.38509 23.1944 10.7142L24.6527 11.9642C26.1561 13.2528 26.9078 13.8972 27.308 14.7674C27.7083 15.6376 27.7083 16.6277 27.7083 18.6077V24.7916C27.7083 27.5415 27.7083 28.9164 26.854 29.7707C25.9997 30.625 24.6248 30.625 21.875 30.625H13.125C10.3751 30.625 9.00017 30.625 8.1459 29.7707C7.29163 28.9164 7.29163 27.5415 7.29163 24.7916V18.6077Z" stroke="#781691" stroke-width="2"/>
<path d="M21.1458 30.625V22.875C21.1458 22.3227 20.6981 21.875 20.1458 21.875H14.8541C14.3018 21.875 13.8541 22.3227 13.8541 22.875V30.625" stroke="#781691" stroke-width="2" stroke-linecap="round" stroke-linejoin="round"/>
</svg>
