<svg width="17" height="16" viewBox="0 0 17 16" fill="none" xmlns="http://www.w3.org/2000/svg">
<path d="M7.56517 15.1304C7.52135 15.1304 7.47753 15.1228 7.43522 15.1073L0.247822 12.475C0.0989776 12.4206 0 12.2787 0 12.1202V3.00975C0 2.88641 0.0602554 2.77081 0.161311 2.69997C0.262555 2.62933 0.391755 2.61233 0.507543 2.65502L7.69494 5.28718C7.84378 5.34177 7.94276 5.48343 7.94276 5.64191V14.7526C7.94276 14.8759 7.88251 14.9917 7.78145 15.0623C7.71723 15.1071 7.64167 15.1304 7.56517 15.1304ZM0.755554 11.8563L7.1874 14.212V5.90598L0.755554 3.55035V11.8563Z" fill="#717171"/>
<path d="M7.56528 15.1304C7.48897 15.1304 7.41322 15.1071 7.34881 15.0624C7.24757 14.9917 7.1875 14.8761 7.1875 14.7526V5.64194C7.1875 5.4334 7.35674 5.26416 7.56528 5.26416C7.77381 5.26416 7.94305 5.4334 7.94305 5.64194V14.212L9.32931 13.7043C9.52462 13.6323 9.74222 13.733 9.81381 13.929C9.88558 14.1249 9.78491 14.342 9.58903 14.4135L7.69504 15.1071C7.65311 15.1228 7.6091 15.1304 7.56528 15.1304Z" fill="#717171"/>
<path d="M14.753 7.45457C14.5444 7.45457 14.3752 7.28533 14.3752 7.07679V3.55043L7.69534 5.99673C7.49947 6.06851 7.28243 5.96783 7.21066 5.77195C7.13888 5.57588 7.23956 5.35904 7.43543 5.28726L14.623 2.6551C14.7384 2.61222 14.868 2.62941 14.9693 2.70006C15.0703 2.77089 15.1306 2.8863 15.1306 3.00983V7.07679C15.1308 7.28533 14.9615 7.45457 14.753 7.45457Z" fill="#717171"/>
<path d="M7.56517 6.01974C7.52116 6.01974 7.47715 6.01199 7.43522 5.99669L0.247822 3.36453C0.0989776 3.30994 0 3.16827 0 3.0098C0 2.85132 0.0989776 2.70965 0.247822 2.65506L7.43541 0.0230916C7.51908 -0.00769721 7.61145 -0.00769721 7.69513 0.0230916L14.8825 2.65506C15.0314 2.70965 15.1305 2.85132 15.1305 3.0098C15.1305 3.16827 15.0316 3.30994 14.8825 3.36453L7.69513 5.99669C7.6532 6.01218 7.60918 6.01974 7.56517 6.01974ZM1.47635 3.0098L7.56517 5.23963L13.654 3.0098L7.56517 0.779968L1.47635 3.0098Z" fill="#717171"/>
<path d="M3.78989 7.10914C3.58135 7.10914 3.41211 6.93989 3.41211 6.73136V4.25919C3.41211 4.09995 3.51203 3.95772 3.66182 3.90389L10.9068 1.29269C11.1025 1.22148 11.3195 1.32367 11.3904 1.51993C11.461 1.71618 11.3592 1.93265 11.163 2.00348L4.16766 4.52458V6.73136C4.16766 6.93989 3.99861 7.10914 3.78989 7.10914Z" fill="#717171"/>
<path d="M12.5815 12.9079C12.4814 12.9079 12.3853 12.868 12.3144 12.7972L11.1365 11.6193C10.989 11.4718 10.989 11.2326 11.1365 11.0851C11.284 10.9376 11.5232 10.9376 11.6707 11.0851L12.5815 11.9959L14.6702 9.90703C14.8178 9.75951 15.0569 9.75951 15.2044 9.90703C15.3519 10.0546 15.3519 10.2937 15.2044 10.4412L12.8486 12.7972C12.7778 12.868 12.6818 12.9079 12.5815 12.9079Z" fill="#717171"/>
<path d="M13.1708 15.1813C11.0591 15.1813 9.34131 13.4634 9.34131 11.352C9.34131 9.24021 11.0592 7.52246 13.1708 7.52246C15.2822 7.52227 17.0002 9.24002 17.0002 11.3518C17.0002 13.4634 15.2822 15.1813 13.1708 15.1813ZM13.1708 8.27783C11.4757 8.27783 10.0969 9.6569 10.0969 11.3518C10.0969 13.0467 11.4759 14.4256 13.1708 14.4256C14.8657 14.4256 16.2446 13.0469 16.2446 11.3518C16.2446 9.65671 14.8657 8.27783 13.1708 8.27783Z" fill="#717171"/>
</svg>
