<svg width="21" height="21" viewBox="0 0 21 21" fill="none" xmlns="http://www.w3.org/2000/svg">
<path d="M10.08 20.16C4.50461 20.16 0 15.6185 0 10.08C0 4.54154 4.50461 0 10.08 0C15.6185 0 20.16 4.50461 20.16 10.08C20.16 15.6554 15.6185 20.16 10.08 20.16Z" fill="#9B1CBB"/>
<path d="M9.26845 10.8917L10.6896 12.3128C10.8169 12.44 11.0124 12.4687 11.1711 12.3839L12.8742 11.4695C13.0004 11.4018 13.1524 11.4051 13.2753 11.4783L15.7601 12.9528C15.9375 13.058 16.0085 13.2778 15.9259 13.4667C15.7138 13.9498 15.3271 14.8355 15.1734 15.2271C15.1409 15.3097 15.093 15.3852 15.0264 15.443C13.37 16.8784 10.0754 15.1296 7.55314 12.6075C5.03085 10.0854 3.28193 6.79045 4.71742 5.13474C4.77526 5.06755 4.85072 5.01963 4.93335 4.98713C5.32444 4.83401 6.21074 4.44734 6.69383 4.23473C6.88277 4.15156 7.10255 4.22317 7.20776 4.40052L8.68236 6.88519C8.75507 7.00802 8.75837 7.16059 8.69117 7.28618L7.77678 8.98926C7.69195 9.14789 7.72059 9.34342 7.84784 9.47066L9.26845 10.8917Z" fill="white"/>
</svg>
