<svg width="35" height="33" viewBox="0 0 35 33" fill="none" xmlns="http://www.w3.org/2000/svg">
<path d="M34.6979 16.5L30.5488 12.211L31.3846 6.30229L25.5068 5.27138L22.7102 0L17.3489 2.62085L11.9877 0L9.19108 5.27138L3.31326 6.30268L4.1491 12.2113L0 16.5L4.1491 20.789L3.31326 26.6973L9.1907 27.7282L11.9877 32.9996L17.3489 30.3792L22.7102 33L25.5072 27.7286L31.3846 26.6977L30.5488 20.789L34.6979 16.5ZM13.245 9.34491C15.0261 9.34491 16.4753 10.7941 16.4753 12.5753C16.4753 14.3568 15.0261 15.8057 13.245 15.8057C11.4634 15.8057 10.0146 14.3564 10.0146 12.5753C10.0146 10.7941 11.4638 9.34491 13.245 9.34491ZM12.071 23.4049L10.9337 22.3636L22.6269 9.59512L23.7638 10.6364L12.071 23.4049ZM21.0944 23.6555C19.3132 23.6555 17.864 22.2063 17.864 20.4247C17.864 18.6436 19.3132 17.1943 21.0944 17.1943C22.8759 17.1943 24.3251 18.6436 24.3251 20.4247C24.3251 22.2063 22.8759 23.6555 21.0944 23.6555Z" fill="#781691"/>
</svg>
