<svg width="87" height="68" viewBox="0 0 87 68" fill="none" xmlns="http://www.w3.org/2000/svg">
<g clip-path="url(#clip0_63_415)">
<path d="M5.19829 56.3359H8.73249L5.47167 63.6634H8.47891L7.89252 62.3495L9.6517 58.3917L13.9347 68H10.4005L9.66755 66.3546H4.26719L3.5342 68H0L5.19829 56.3359Z" fill="url(#paint0_linear_63_415)"/>
<path d="M24.9731 56.3359C26.7837 56.3359 28.2695 57.6183 28.2695 59.1848V60.1831C28.2695 60.9447 27.9209 61.6234 27.3741 62.1285C27.9248 62.6809 28.2695 63.3951 28.2695 64.1527V65.1511C28.2695 66.7176 26.7877 68 24.9731 68H14.8657V60.8145H24.9731V59.027H15.048V56.3359H24.9731ZM24.9731 65.3089V63.5214H18.1622V65.3089H24.9731Z" fill="url(#paint1_linear_63_415)"/>
<path d="M32.9569 63.5056C31.1422 63.5056 29.6604 62.2232 29.6604 60.6567V59.1848C29.6604 57.6183 31.1422 56.3359 32.9569 56.3359H42.6997V59.027H32.9569V60.8145H39.4032C41.2179 60.8145 42.6997 62.0969 42.6997 63.6634V65.1511C42.6997 66.7176 41.2179 68 39.4032 68H29.6604V65.3089H39.4032V63.5056H32.9569Z" fill="url(#paint2_linear_63_415)"/>
<path d="M47.7315 56.3359V68H44.4351V56.3359H47.7315ZM54.4869 56.3359H57.7834V68H54.4869V63.5056H49.36V60.8145H54.4869V56.3359Z" fill="url(#paint3_linear_63_415)"/>
<path d="M62.6329 67.9842C60.8183 67.9842 59.3364 66.7018 59.3364 65.1353V59.1848C59.3364 57.6183 60.8183 56.3359 62.6329 56.3359H71.825V59.027H62.6329V60.8145H71.6427V63.5056H62.6329V65.2931H72.0073V67.9842H62.6329Z" fill="url(#paint4_linear_63_415)"/>
<path d="M73.8181 56.3359H83.6877C85.5023 56.3359 86.9841 57.6183 86.9841 59.1848V61.0197C86.9841 62.5862 85.5023 63.8686 83.6877 63.8686L87 68H82.9903L79.6741 63.8686H76.9283V68H73.6318V61.1775H83.6837V59.027H73.8141V56.3359H73.8181Z" fill="url(#paint5_linear_63_415)"/>
<path d="M19.6124 36.0736C18.9071 36.6063 18.0236 37.0995 16.9419 37.4033H14.0298C14.0298 37.4033 16.3635 36.9575 18.4317 35.7105C18.8002 35.4856 19.1607 35.241 19.4975 34.9648C19.5728 34.9016 19.652 34.8385 19.7233 34.7714C19.8264 34.6807 19.9214 34.5899 20.0165 34.4952C20.9595 33.56 21.6053 32.3565 21.5419 30.8255C21.5538 30.861 21.5618 30.9005 21.5657 30.9439L21.748 33.6942C21.5736 33.9941 21.0586 34.8148 20.1433 35.6316C19.9848 35.7816 19.8065 35.9276 19.6124 36.0736Z" fill="url(#paint6_linear_63_415)"/>
<path d="M21.966 36.9022C21.9818 37.1745 21.7956 37.4033 21.5579 37.4033H17.885C18.4397 37.2218 20.2544 36.4879 21.7916 34.2861L21.966 36.9022Z" fill="url(#paint7_linear_63_415)"/>
<path d="M14.0338 37.4034C13.7961 37.4034 13.6098 37.1706 13.6257 36.9022L13.6891 35.9592C13.8674 36.0696 14.0813 36.1328 14.3072 36.1328C14.9609 36.1328 15.4919 35.604 15.4919 34.953C15.4919 34.3571 15.0441 33.8599 14.4657 33.785C14.6796 33.6469 14.8183 33.4101 14.8183 33.1418C14.8183 32.7196 14.4736 32.3763 14.0496 32.3763C14.01 32.3763 13.9704 32.3802 13.9308 32.3842L14.0259 30.9439C14.0417 30.7032 14.22 30.5138 14.434 30.5138H21.1696C21.3478 30.5138 21.4984 30.644 21.5578 30.8255C21.7678 35.9315 14.0338 37.4034 14.0338 37.4034Z" fill="url(#paint8_linear_63_415)"/>
<path d="M15.1551 34.9569C15.1551 35.4264 14.7747 35.8053 14.3032 35.8053C14.0734 35.8053 13.8634 35.7145 13.7129 35.5646C13.5544 35.4107 13.4553 35.1936 13.4553 34.9569C13.4553 34.6767 13.59 34.4321 13.8 34.2782C13.9427 34.1716 14.117 34.1125 14.3072 34.1125C14.7747 34.1085 15.1551 34.4873 15.1551 34.9569Z" fill="url(#paint9_linear_63_415)"/>
<path d="M14.4815 33.1418C14.4815 33.3825 14.2874 33.5758 14.0457 33.5758C13.9744 33.5758 13.911 33.56 13.8516 33.5285C13.7089 33.4574 13.6099 33.3114 13.6099 33.1378C13.6099 32.9484 13.7327 32.7866 13.9031 32.7274C13.9466 32.7117 13.9942 32.7038 14.0457 32.7038C14.2834 32.7077 14.4815 32.9011 14.4815 33.1418Z" fill="url(#paint10_linear_63_415)"/>
<path d="M12.7185 34.2861C13.0139 34.2861 13.2534 34.0476 13.2534 33.7534C13.2534 33.4592 13.0139 33.2207 12.7185 33.2207C12.4231 33.2207 12.1836 33.4592 12.1836 33.7534C12.1836 34.0476 12.4231 34.2861 12.7185 34.2861Z" fill="url(#paint11_linear_63_415)"/>
<path d="M12.8767 32.8734C13.0693 32.8734 13.2254 32.718 13.2254 32.5262C13.2254 32.3344 13.0693 32.179 12.8767 32.179C12.6842 32.179 12.5281 32.3344 12.5281 32.5262C12.5281 32.718 12.6842 32.8734 12.8767 32.8734Z" fill="url(#paint12_linear_63_415)"/>
<path d="M13.281 31.6463C13.5085 31.6463 13.693 31.4625 13.693 31.2359C13.693 31.0092 13.5085 30.8255 13.281 30.8255C13.0534 30.8255 12.8689 31.0092 12.8689 31.2359C12.8689 31.4625 13.0534 31.6463 13.281 31.6463Z" fill="url(#paint13_linear_63_415)"/>
<path d="M20.5553 29.8351L20.5514 30.5138H19.8818L19.8857 29.8311C19.8937 29.0893 19.4816 28.3948 18.8397 28.0278L18.8318 28.0042C18.8279 28.0081 18.8239 28.0121 18.8199 28.02C18.8041 28.0081 18.7803 27.9963 18.7526 27.9805C18.7486 27.9805 18.7447 27.9805 18.7407 27.9766C18.7367 27.9766 18.7288 27.9726 18.7209 27.9687C18.6733 27.9489 18.6099 27.9213 18.5386 27.8937C18.3247 27.8108 18.0196 27.728 17.6987 27.7398C17.6947 27.7398 17.6947 27.7359 17.6947 27.7359L17.6432 27.7398C17.6234 27.7398 17.6075 27.7437 17.5877 27.7437H17.5798C17.449 27.7556 17.3183 27.7832 17.1915 27.8227C16.8825 27.9213 16.5932 28.091 16.3595 28.3238C15.9672 28.7105 15.7493 29.2235 15.7453 29.7719L15.7374 30.5098H15.0718L15.0757 29.768C15.0837 29.042 15.3689 28.3633 15.8919 27.8503C16.201 27.5464 16.5813 27.3176 16.9894 27.1913C17.0726 27.1676 17.1519 27.1479 17.2272 27.1321C17.247 27.1282 17.2668 27.1242 17.2826 27.1203C17.2866 27.1163 17.2866 27.1163 17.2866 27.1163H17.2906C17.5521 27.0729 18.285 27.0019 19.0894 27.4044C19.9888 27.8779 20.5672 28.8249 20.5553 29.8351Z" fill="url(#paint14_linear_63_415)"/>
<path d="M20.2107 31.8475C20.5061 31.8475 20.7455 31.609 20.7455 31.3148C20.7455 31.0206 20.5061 30.7821 20.2107 30.7821C19.9153 30.7821 19.6758 31.0206 19.6758 31.3148C19.6758 31.609 19.9153 31.8475 20.2107 31.8475Z" fill="url(#paint15_linear_63_415)"/>
<path d="M20.2108 31.666C20.4055 31.666 20.5634 31.5088 20.5634 31.3148C20.5634 31.1209 20.4055 30.9636 20.2108 30.9636C20.016 30.9636 19.8582 31.1209 19.8582 31.3148C19.8582 31.5088 20.016 31.666 20.2108 31.666Z" fill="url(#paint16_linear_63_415)"/>
<path d="M20.2107 31.4884C20.307 31.4884 20.385 31.4107 20.385 31.3148C20.385 31.2189 20.307 31.1412 20.2107 31.1412C20.1144 31.1412 20.0364 31.2189 20.0364 31.3148C20.0364 31.4107 20.1144 31.4884 20.2107 31.4884Z" fill="url(#paint17_linear_63_415)"/>
<path d="M15.4126 31.8475C15.708 31.8475 15.9475 31.609 15.9475 31.3148C15.9475 31.0206 15.708 30.7821 15.4126 30.7821C15.1172 30.7821 14.8777 31.0206 14.8777 31.3148C14.8777 31.609 15.1172 31.8475 15.4126 31.8475Z" fill="url(#paint18_linear_63_415)"/>
<path d="M15.4127 31.666C15.6074 31.666 15.7653 31.5088 15.7653 31.3148C15.7653 31.1209 15.6074 30.9636 15.4127 30.9636C15.2179 30.9636 15.0601 31.1209 15.0601 31.3148C15.0601 31.5088 15.2179 31.666 15.4127 31.666Z" fill="url(#paint19_linear_63_415)"/>
<path d="M15.4126 31.4884C15.5089 31.4884 15.5869 31.4107 15.5869 31.3148C15.5869 31.2189 15.5089 31.1412 15.4126 31.1412C15.3163 31.1412 15.2383 31.2189 15.2383 31.3148C15.2383 31.4107 15.3163 31.4884 15.4126 31.4884Z" fill="url(#paint20_linear_63_415)"/>
<path d="M21.7957 34.2861C20.2584 36.4879 18.4437 37.2218 17.889 37.4033H16.946C18.0277 37.0995 18.9113 36.6063 19.6165 36.0736C19.8067 35.9276 19.985 35.7816 20.1514 35.6316C21.0666 34.8109 21.5817 33.9941 21.756 33.6942L21.7957 34.2861Z" fill="url(#paint21_linear_63_415)"/>
<path d="M73.7941 35.9947L73.7864 36.0024H73.798L73.7941 35.9947Z" fill="url(#paint22_linear_63_415)"/>
<path d="M16.6087 27.8225C16.6009 27.8225 16.5932 27.8186 16.5854 27.8148L16.5971 27.8186C16.6009 27.8148 16.6048 27.8186 16.6087 27.8225Z" fill="url(#paint23_linear_63_415)"/>
<path d="M16.6087 27.8225C16.6009 27.8225 16.5932 27.8186 16.5854 27.8148L16.5971 27.8186C16.6009 27.8148 16.6048 27.8186 16.6087 27.8225Z" fill="url(#paint24_linear_63_415)"/>
<path d="M16.7353 27.8856C16.7353 27.8856 16.7276 27.8817 16.7083 27.8739C16.716 27.8662 16.7276 27.8934 16.7353 27.8856Z" fill="url(#paint25_linear_63_415)"/>
<path d="M73.6318 35.9907L73.624 35.9985H73.6356L73.6318 35.9907Z" fill="url(#paint26_linear_63_415)"/>
<path d="M36.5545 35.9078L31.1066 49.5331C30.4647 51.1351 28.9314 52.1177 27.3029 52.1414C26.776 52.1492 26.2332 52.0545 25.7102 51.8454C23.5786 51.001 22.5405 48.594 23.3884 46.4711L28.9155 32.6525C31.1818 33.9191 33.7612 35.0871 36.5545 35.9078Z" fill="url(#paint27_linear_63_415)"/>
<path d="M65.153 51.3167C64.638 51.5376 64.0991 51.6481 63.5722 51.656C61.9437 51.6757 60.3827 50.7366 59.6972 49.1503L53.7897 35.4659L52.4624 32.392L44.9344 14.9511L38.8446 30.1902L37.7947 32.8143L37.6798 33.1023L36.5545 35.9079C33.7573 35.0871 31.1819 33.9191 28.9116 32.6525L29.8744 30.2455L30.1518 29.547L31.0472 27.3097L40.9287 2.60431C40.9802 2.47804 41.0357 2.35571 41.0991 2.23339C41.1268 2.17815 41.1625 2.1229 41.1942 2.06766C41.2298 2.00453 41.2655 1.94139 41.3051 1.8822C41.3447 1.82301 41.3883 1.76383 41.4319 1.70858C41.4675 1.65729 41.5032 1.60599 41.5428 1.55469C41.5864 1.49945 41.634 1.44815 41.6815 1.39685C41.7251 1.3495 41.7687 1.29821 41.8123 1.25086C41.8598 1.2035 41.9073 1.1601 41.9549 1.11669C42.0064 1.06934 42.0579 1.02199 42.1094 0.974642C42.157 0.935183 42.2085 0.895723 42.26 0.856264C42.3154 0.812859 42.3709 0.769454 42.4303 0.726049C42.4898 0.682644 42.5532 0.651076 42.6126 0.611617C42.6641 0.58005 42.7196 0.544537 42.775 0.512969C42.8939 0.445889 43.0167 0.3867 43.1396 0.335403H43.1435C43.1594 0.327511 43.1792 0.323565 43.195 0.315673C43.306 0.272268 43.4129 0.228863 43.5278 0.19335C43.5912 0.17362 43.6507 0.161783 43.7141 0.142053C43.7814 0.122323 43.8488 0.102594 43.9201 0.0907561C43.9914 0.0749724 44.0627 0.0670806 44.134 0.0552428C44.1974 0.0434051 44.2569 0.0355133 44.3203 0.0276214C44.3916 0.0197296 44.4629 0.0157837 44.5342 0.0118378C44.5976 0.00789184 44.661 0.00394592 44.7284 0C44.7957 0 44.8631 0.00394592 44.9344 0.00394592C45.0017 0.00789184 45.0691 0.00789184 45.1365 0.0118378C45.2038 0.0157837 45.2712 0.0276214 45.3385 0.0355133C45.4059 0.0434051 45.4732 0.0512969 45.5406 0.0631347C45.6159 0.0789184 45.6912 0.0986479 45.7664 0.114432C45.8219 0.126269 45.8813 0.138107 45.9368 0.153891C46.0636 0.189404 46.1864 0.232809 46.3053 0.28016C46.3132 0.284106 46.3172 0.284106 46.3251 0.284106C46.4519 0.335403 46.5747 0.390646 46.6975 0.453781C46.749 0.481402 46.8005 0.512969 46.8521 0.540591C46.9194 0.58005 46.9868 0.615563 47.0502 0.655022C47.1096 0.690536 47.1611 0.733941 47.2166 0.7734C47.272 0.812859 47.3275 0.848372 47.379 0.891777C47.4305 0.935183 47.482 0.978588 47.5335 1.02594C47.585 1.06934 47.6365 1.11275 47.6841 1.1601C47.7316 1.2035 47.7713 1.2548 47.8188 1.29821C47.8664 1.3495 47.9179 1.4008 47.9614 1.45604C48.0011 1.50339 48.0407 1.55469 48.0763 1.60599C48.1199 1.66518 48.1675 1.72042 48.2071 1.77961C48.2467 1.8388 48.2824 1.89799 48.318 1.96112C48.3537 2.01636 48.3893 2.06766 48.421 2.1229C48.4884 2.24128 48.5478 2.3636 48.5993 2.48987L58.9959 26.5758L59.927 28.7381L60.244 29.4681L61.2702 31.8514L67.3203 45.8713C68.2356 47.9824 67.2609 50.413 65.153 51.3167Z" fill="url(#paint28_linear_63_415)"/>
<path d="M37.6756 33.1023L38.8405 30.1863C36.0155 29.5668 33.4282 28.4974 31.051 27.3097L29.8782 30.2455C32.2634 31.4174 34.8585 32.4315 37.6756 33.1023Z" fill="#731691"/>
<path d="M58.9997 26.5916C56.6938 27.8819 54.1382 29.0183 51.3489 29.7956L52.5969 32.684C55.3902 31.8751 57.9339 30.7545 60.2517 29.4839L58.9997 26.5916Z" fill="#731691"/>
<path d="M70.4383 24.4055C70.1847 24.6896 66.7337 28.4935 61.2779 31.8633C59.0789 33.2207 56.559 34.5071 53.7895 35.462C51.024 36.4208 48.0088 37.0482 44.8272 37.0916C44.7123 37.0916 44.5974 37.0956 44.4865 37.0956C41.713 37.0956 39.0465 36.6418 36.5544 35.9079C33.7571 35.0871 31.1817 33.9191 28.9114 32.6525C24.4501 30.1626 21.1734 27.2979 19.7669 25.9681C19.0973 25.3367 19.0735 24.2832 19.7035 23.6203C20.0205 23.2888 20.4523 23.1034 20.9119 23.1034C21.3399 23.1034 21.748 23.2651 22.061 23.5611C23.3249 24.7567 26.2251 27.3018 30.1555 29.551C32.4021 30.8374 34.9854 32.029 37.7905 32.8143C39.9103 33.4101 42.1568 33.7731 44.4825 33.7731C44.5816 33.7731 44.6806 33.7731 44.7797 33.7692C47.4779 33.7337 50.0612 33.2049 52.4583 32.3921H52.4622C55.2317 31.4529 57.7596 30.131 59.9268 28.7539C64.8002 25.6564 67.8828 22.2629 67.9382 22.1997C68.2552 21.8446 68.7069 21.6434 69.1823 21.6434C69.5904 21.6434 69.9866 21.7933 70.2917 22.0656C70.6245 22.3615 70.8226 22.768 70.8464 23.2099C70.8821 23.6479 70.7315 24.0741 70.4383 24.4055Z" fill="url(#paint29_linear_63_415)"/>
<path d="M73.5487 23.5374C73.5368 24.4805 73.2317 25.392 72.677 26.1496C72.5819 26.2798 72.4789 26.4061 72.368 26.5284C72.3442 26.556 72.3204 26.5758 72.2927 26.5955C72.2848 26.5837 72.2729 26.5718 72.261 26.5639C72.1461 26.4495 71.9916 26.3864 71.8291 26.3864C71.6984 26.3864 71.5755 26.4298 71.4725 26.5008C71.318 26.3074 71.3022 26.0352 71.4329 25.83C71.4488 25.7984 71.4686 25.7708 71.4963 25.7471C72.051 25.1355 72.36 24.3463 72.3719 23.5256C72.3997 21.6552 70.8941 20.1202 69.02 20.0926C68.4574 20.0847 67.9225 20.211 67.4272 20.4635C67.1419 20.6095 66.7854 20.4951 66.6388 20.211C66.4922 19.9229 66.6071 19.5718 66.8923 19.4258C67.55 19.0904 68.291 18.9207 69.0319 18.9286C71.5597 18.9562 73.5843 21.0239 73.5487 23.5374Z" fill="url(#paint30_linear_63_415)"/>
<path d="M72.4629 26.9269V27.6372C72.3401 27.5898 72.2133 27.5504 72.0825 27.5267C72.0825 27.5267 72.0825 27.5267 72.0786 27.5267V27.0453C72.0786 26.9309 72.035 26.8204 71.9597 26.7336C71.9518 26.7257 71.9439 26.7178 71.9359 26.706C71.8448 26.6152 71.722 26.5639 71.5952 26.5639C71.4922 26.5639 71.3931 26.5994 71.3139 26.6547C71.1911 26.7415 71.1118 26.8835 71.1118 27.0453V27.5267C71.1078 27.5267 71.1039 27.5267 71.1039 27.5267C71.0643 27.5346 71.0286 27.5425 70.989 27.5543C70.9018 27.578 70.8146 27.6056 70.7314 27.6372V26.9269C70.7314 26.56 70.9612 26.2482 71.2861 26.122C71.3852 26.0825 71.4882 26.0628 71.5991 26.0628C71.829 26.0628 72.0469 26.1535 72.2093 26.3153C72.2291 26.335 72.2489 26.3548 72.2648 26.3745C72.3955 26.5284 72.4629 26.7257 72.4629 26.9269Z" fill="url(#paint31_linear_63_415)"/>
<path d="M71.5992 31.9185C70.7909 31.9185 70.149 31.2753 70.149 30.4664C70.149 29.6614 70.7949 29.0222 71.6111 29.0222C72.4114 29.0222 73.0572 29.6693 73.0572 30.4704C73.0572 31.2753 72.4114 31.9185 71.5992 31.9185ZM74.7213 29.7561C74.3093 28.2567 72.8512 27.1676 71.1198 27.4123C70.4858 27.503 69.9272 27.7674 69.4517 28.1975C68.8138 28.7697 68.4651 29.4878 68.3819 30.3362C68.3423 30.7624 68.4612 31.153 68.6236 31.5397C68.9247 32.2618 69.313 32.9366 69.7172 33.6034C70.3273 34.6057 70.9454 35.6001 71.5635 36.5984C71.5635 36.5984 71.5635 36.6023 71.5675 36.6063C71.5754 36.622 71.6031 36.6615 71.6031 36.6694C71.6031 36.6694 71.615 36.6497 71.6428 36.6023C71.6428 36.6023 71.6428 36.6023 71.6428 36.5984C72.1776 35.7421 72.7125 34.8898 73.2434 34.0335C73.707 33.2838 74.1547 32.5262 74.5192 31.7252C74.8124 31.082 74.9115 30.4427 74.7213 29.7561Z" fill="url(#paint32_linear_63_415)"/>
<path d="M15.4047 27.3728C15.3651 27.3728 15.3294 27.3768 15.2898 27.3807C15.3096 27.3768 15.3294 27.3768 15.3492 27.3728L15.4047 27.3689V27.3728Z" fill="url(#paint33_linear_63_415)"/>
<path d="M14.9688 26.702C14.9411 26.706 14.9212 26.7099 14.9014 26.7139C14.8737 26.7178 14.8618 26.7218 14.8618 26.7218" fill="url(#paint34_linear_63_415)"/>
<path d="M23.5746 21.6749C23.4241 21.963 23.0714 22.0774 22.7862 21.9275C22.2909 21.6749 21.756 21.5526 21.1934 21.5605C19.3193 21.5842 17.8137 23.1231 17.8415 24.9934C17.8533 25.7866 18.1426 26.5521 18.6577 27.1519C18.6577 27.1519 18.6577 27.1519 18.6616 27.1558L18.6775 27.1716C18.729 27.215 18.8478 27.3334 18.8875 27.361C18.8914 27.3649 18.8954 27.3649 18.8993 27.3649L18.9271 27.3807C18.9429 27.3886 18.9627 27.3965 18.9786 27.4083C18.1981 27.0177 17.4809 27.0848 17.2273 27.1282C16.8747 26.485 16.6806 25.7589 16.6687 25.0092C16.633 22.4957 18.6577 20.428 21.1776 20.3964C21.9224 20.3846 22.6594 20.5582 23.3171 20.8936C23.6063 21.0396 23.7212 21.3869 23.5746 21.6749Z" fill="url(#paint35_linear_63_415)"/>
</g>
<defs>
<linearGradient id="paint0_linear_63_415" x1="6.96719" y1="56.337" x2="6.96719" y2="68.0011" gradientUnits="userSpaceOnUse">
<stop stop-color="#BC37DE"/>
<stop offset="0.5" stop-color="#9B1CBB"/>
<stop offset="1" stop-color="#781691"/>
</linearGradient>
<linearGradient id="paint1_linear_63_415" x1="21.5681" y1="56.337" x2="21.5681" y2="68.0011" gradientUnits="userSpaceOnUse">
<stop stop-color="#BC37DE"/>
<stop offset="0.5" stop-color="#9B1CBB"/>
<stop offset="1" stop-color="#781691"/>
</linearGradient>
<linearGradient id="paint2_linear_63_415" x1="36.1779" y1="56.337" x2="36.1779" y2="68.0011" gradientUnits="userSpaceOnUse">
<stop stop-color="#BC37DE"/>
<stop offset="0.5" stop-color="#9B1CBB"/>
<stop offset="1" stop-color="#781691"/>
</linearGradient>
<linearGradient id="paint3_linear_63_415" x1="51.108" y1="56.337" x2="51.108" y2="68.0011" gradientUnits="userSpaceOnUse">
<stop stop-color="#BC37DE"/>
<stop offset="0.5" stop-color="#9B1CBB"/>
<stop offset="1" stop-color="#781691"/>
</linearGradient>
<linearGradient id="paint4_linear_63_415" x1="65.6719" y1="56.337" x2="65.6719" y2="67.9851" gradientUnits="userSpaceOnUse">
<stop stop-color="#BC37DE"/>
<stop offset="0.5" stop-color="#9B1CBB"/>
<stop offset="1" stop-color="#781691"/>
</linearGradient>
<linearGradient id="paint5_linear_63_415" x1="80.3184" y1="56.337" x2="80.3184" y2="68.0011" gradientUnits="userSpaceOnUse">
<stop stop-color="#BC37DE"/>
<stop offset="0.5" stop-color="#9B1CBB"/>
<stop offset="1" stop-color="#781691"/>
</linearGradient>
<linearGradient id="paint6_linear_63_415" x1="17.8932" y1="30.8273" x2="17.8932" y2="37.4052" gradientUnits="userSpaceOnUse">
<stop stop-color="#BC37DE"/>
<stop offset="0.5" stop-color="#9B1CBB"/>
<stop offset="1" stop-color="#781691"/>
</linearGradient>
<linearGradient id="paint7_linear_63_415" x1="19.9272" y1="34.2878" x2="19.9272" y2="37.4052" gradientUnits="userSpaceOnUse">
<stop stop-color="#BC37DE"/>
<stop offset="0.5" stop-color="#9B1CBB"/>
<stop offset="1" stop-color="#781691"/>
</linearGradient>
<linearGradient id="paint8_linear_63_415" x1="17.5885" y1="30.5135" x2="17.5885" y2="37.4051" gradientUnits="userSpaceOnUse">
<stop stop-color="#BC37DE"/>
<stop offset="0.5" stop-color="#9B1CBB"/>
<stop offset="1" stop-color="#781691"/>
</linearGradient>
<linearGradient id="paint9_linear_63_415" x1="14.3053" y1="34.1085" x2="14.3053" y2="35.802" gradientUnits="userSpaceOnUse">
<stop stop-color="#BC37DE"/>
<stop offset="0.5" stop-color="#9B1CBB"/>
<stop offset="1" stop-color="#781691"/>
</linearGradient>
<linearGradient id="paint10_linear_63_415" x1="14.0439" y1="32.7074" x2="14.0439" y2="33.5774" gradientUnits="userSpaceOnUse">
<stop stop-color="#BC37DE"/>
<stop offset="0.5" stop-color="#9B1CBB"/>
<stop offset="1" stop-color="#781691"/>
</linearGradient>
<linearGradient id="paint11_linear_63_415" x1="12.7181" y1="33.2214" x2="12.7181" y2="34.2883" gradientUnits="userSpaceOnUse">
<stop stop-color="#BC37DE"/>
<stop offset="0.5" stop-color="#9B1CBB"/>
<stop offset="1" stop-color="#781691"/>
</linearGradient>
<linearGradient id="paint12_linear_63_415" x1="12.8786" y1="32.1781" x2="12.8786" y2="32.8755" gradientUnits="userSpaceOnUse">
<stop stop-color="#BC37DE"/>
<stop offset="0.5" stop-color="#9B1CBB"/>
<stop offset="1" stop-color="#781691"/>
</linearGradient>
<linearGradient id="paint13_linear_63_415" x1="13.2815" y1="30.8267" x2="13.2815" y2="31.6459" gradientUnits="userSpaceOnUse">
<stop stop-color="#BC37DE"/>
<stop offset="0.5" stop-color="#9B1CBB"/>
<stop offset="1" stop-color="#781691"/>
</linearGradient>
<linearGradient id="paint14_linear_63_415" x1="17.8135" y1="27.0878" x2="17.8135" y2="30.5144" gradientUnits="userSpaceOnUse">
<stop stop-color="#BC37DE"/>
<stop offset="0.5" stop-color="#9B1CBB"/>
<stop offset="1" stop-color="#781691"/>
</linearGradient>
<linearGradient id="paint15_linear_63_415" x1="20.2126" y1="30.7787" x2="20.2126" y2="31.8477" gradientUnits="userSpaceOnUse">
<stop stop-color="#BC37DE"/>
<stop offset="0.5" stop-color="#9B1CBB"/>
<stop offset="1" stop-color="#781691"/>
</linearGradient>
<linearGradient id="paint16_linear_63_415" x1="20.2127" y1="30.9616" x2="20.2127" y2="31.6648" gradientUnits="userSpaceOnUse">
<stop stop-color="#BC37DE"/>
<stop offset="0.5" stop-color="#9B1CBB"/>
<stop offset="1" stop-color="#781691"/>
</linearGradient>
<linearGradient id="paint17_linear_63_415" x1="20.2126" y1="31.1398" x2="20.2126" y2="31.4865" gradientUnits="userSpaceOnUse">
<stop stop-color="#BC37DE"/>
<stop offset="0.5" stop-color="#9B1CBB"/>
<stop offset="1" stop-color="#781691"/>
</linearGradient>
<linearGradient id="paint18_linear_63_415" x1="15.4144" y1="30.7787" x2="15.4144" y2="31.8477" gradientUnits="userSpaceOnUse">
<stop stop-color="#BC37DE"/>
<stop offset="0.5" stop-color="#9B1CBB"/>
<stop offset="1" stop-color="#781691"/>
</linearGradient>
<linearGradient id="paint19_linear_63_415" x1="15.4146" y1="30.9616" x2="15.4146" y2="31.6648" gradientUnits="userSpaceOnUse">
<stop stop-color="#BC37DE"/>
<stop offset="0.5" stop-color="#9B1CBB"/>
<stop offset="1" stop-color="#781691"/>
</linearGradient>
<linearGradient id="paint20_linear_63_415" x1="15.4145" y1="31.1398" x2="15.4145" y2="31.4865" gradientUnits="userSpaceOnUse">
<stop stop-color="#BC37DE"/>
<stop offset="0.5" stop-color="#9B1CBB"/>
<stop offset="1" stop-color="#781691"/>
</linearGradient>
<linearGradient id="paint21_linear_63_415" x1="19.3692" y1="33.6932" x2="19.3692" y2="37.4052" gradientUnits="userSpaceOnUse">
<stop stop-color="#BC37DE"/>
<stop offset="0.5" stop-color="#9B1CBB"/>
<stop offset="1" stop-color="#781691"/>
</linearGradient>
<linearGradient id="paint22_linear_63_415" x1="73.7945" y1="35.993" x2="73.7945" y2="35.999" gradientUnits="userSpaceOnUse">
<stop stop-color="#BC37DE"/>
<stop offset="0.5" stop-color="#9B1CBB"/>
<stop offset="1" stop-color="#781691"/>
</linearGradient>
<linearGradient id="paint23_linear_63_415" x1="16.5979" y1="27.8115" x2="16.5979" y2="27.8209" gradientUnits="userSpaceOnUse">
<stop stop-color="#BC37DE"/>
<stop offset="0.5" stop-color="#9B1CBB"/>
<stop offset="1" stop-color="#781691"/>
</linearGradient>
<linearGradient id="paint24_linear_63_415" x1="16.5979" y1="27.8115" x2="16.5979" y2="27.8209" gradientUnits="userSpaceOnUse">
<stop stop-color="#BC37DE"/>
<stop offset="0.5" stop-color="#9B1CBB"/>
<stop offset="1" stop-color="#781691"/>
</linearGradient>
<linearGradient id="paint25_linear_63_415" x1="16.7209" y1="27.8721" x2="16.7209" y2="27.8863" gradientUnits="userSpaceOnUse">
<stop stop-color="#BC37DE"/>
<stop offset="0.5" stop-color="#9B1CBB"/>
<stop offset="1" stop-color="#781691"/>
</linearGradient>
<linearGradient id="paint26_linear_63_415" x1="73.6318" y1="35.9927" x2="73.6318" y2="35.9987" gradientUnits="userSpaceOnUse">
<stop stop-color="#BC37DE"/>
<stop offset="0.5" stop-color="#9B1CBB"/>
<stop offset="1" stop-color="#781691"/>
</linearGradient>
<linearGradient id="paint27_linear_63_415" x1="29.8242" y1="32.6543" x2="29.8242" y2="52.1415" gradientUnits="userSpaceOnUse">
<stop stop-color="#BC37DE"/>
<stop offset="0.5" stop-color="#9B1CBB"/>
<stop offset="1" stop-color="#781691"/>
</linearGradient>
<linearGradient id="paint28_linear_63_415" x1="48.2906" y1="0" x2="48.2906" y2="51.6545" gradientUnits="userSpaceOnUse">
<stop stop-color="#BC37DE"/>
<stop offset="0.5" stop-color="#9B1CBB"/>
<stop offset="1" stop-color="#781691"/>
</linearGradient>
<linearGradient id="paint29_linear_63_415" x1="45.0544" y1="21.6405" x2="45.0544" y2="37.0947" gradientUnits="userSpaceOnUse">
<stop stop-color="#BC37DE"/>
<stop offset="0.5" stop-color="#9B1CBB"/>
<stop offset="1" stop-color="#781691"/>
</linearGradient>
<linearGradient id="paint30_linear_63_415" x1="70.0652" y1="18.921" x2="70.0652" y2="26.596" gradientUnits="userSpaceOnUse">
<stop stop-color="#BC37DE"/>
<stop offset="0.5" stop-color="#9B1CBB"/>
<stop offset="1" stop-color="#781691"/>
</linearGradient>
<linearGradient id="paint31_linear_63_415" x1="71.5963" y1="26.0641" x2="71.5963" y2="27.6363" gradientUnits="userSpaceOnUse">
<stop stop-color="#BC37DE"/>
<stop offset="0.5" stop-color="#9B1CBB"/>
<stop offset="1" stop-color="#781691"/>
</linearGradient>
<linearGradient id="paint32_linear_63_415" x1="71.5963" y1="27.3766" x2="71.5963" y2="36.6633" gradientUnits="userSpaceOnUse">
<stop stop-color="#BC37DE"/>
<stop offset="0.5" stop-color="#9B1CBB"/>
<stop offset="1" stop-color="#781691"/>
</linearGradient>
<linearGradient id="paint33_linear_63_415" x1="15.3487" y1="27.3685" x2="15.3487" y2="27.3787" gradientUnits="userSpaceOnUse">
<stop stop-color="#BC37DE"/>
<stop offset="0.5" stop-color="#9B1CBB"/>
<stop offset="1" stop-color="#781691"/>
</linearGradient>
<linearGradient id="paint34_linear_63_415" x1="14.9156" y1="26.704" x2="14.9156" y2="26.7258" gradientUnits="userSpaceOnUse">
<stop stop-color="#BC37DE"/>
<stop offset="0.5" stop-color="#9B1CBB"/>
<stop offset="1" stop-color="#781691"/>
</linearGradient>
<linearGradient id="paint35_linear_63_415" x1="20.1546" y1="20.3937" x2="20.1546" y2="27.4074" gradientUnits="userSpaceOnUse">
<stop stop-color="#BC37DE"/>
<stop offset="0.5" stop-color="#9B1CBB"/>
<stop offset="1" stop-color="#781691"/>
</linearGradient>
<clipPath id="clip0_63_415">
<rect width="87" height="68" fill="white"/>
</clipPath>
</defs>
</svg>
