<svg width="50" height="23" viewBox="0 0 50 23" fill="none" xmlns="http://www.w3.org/2000/svg">
<rect width="50" height="23" rx="3" fill="url(#paint0_linear_63_82)" fill-opacity="0.85"/>
<path d="M35.198 14.592H33.336V17H31.978V14.592H26.532V13.612L31.544 7.2H33.056L28.254 13.388H32.02V11.26H33.336V13.388H35.198V14.592ZM36.9347 17.084C36.6733 17.084 36.4493 16.9953 36.2627 16.818C36.076 16.6313 35.9827 16.398 35.9827 16.118C35.9827 15.8473 36.076 15.6233 36.2627 15.446C36.4493 15.2593 36.6733 15.166 36.9347 15.166C37.196 15.166 37.4153 15.2547 37.5927 15.432C37.77 15.6093 37.8587 15.838 37.8587 16.118C37.8587 16.398 37.7653 16.6313 37.5787 16.818C37.4013 16.9953 37.1867 17.084 36.9347 17.084ZM42.9465 11.05C43.5905 11.05 44.1645 11.1713 44.6685 11.414C45.1818 11.6567 45.5832 12.0067 45.8725 12.464C46.1618 12.912 46.3065 13.43 46.3065 14.018C46.3065 14.634 46.1525 15.1753 45.8445 15.642C45.5458 16.1087 45.1305 16.4727 44.5985 16.734C44.0758 16.986 43.4878 17.112 42.8345 17.112C41.5185 17.112 40.5012 16.6873 39.7825 15.838C39.0732 14.9887 38.7185 13.7847 38.7185 12.226C38.7185 11.134 38.9098 10.2053 39.2925 9.44C39.6845 8.66533 40.2258 8.082 40.9165 7.69C41.6165 7.28867 42.4285 7.088 43.3525 7.088C43.8285 7.088 44.2765 7.13933 44.6965 7.242C45.1165 7.33533 45.4805 7.47533 45.7885 7.662L45.2565 8.754C44.7898 8.446 44.1645 8.292 43.3805 8.292C42.3632 8.292 41.5652 8.60933 40.9865 9.244C40.4078 9.86933 40.1185 10.784 40.1185 11.988C40.1185 12.1373 40.1232 12.254 40.1325 12.338C40.4125 11.918 40.7952 11.6007 41.2805 11.386C41.7752 11.162 42.3305 11.05 42.9465 11.05ZM42.7785 15.978C43.4225 15.978 43.9452 15.8053 44.3465 15.46C44.7478 15.1147 44.9485 14.6527 44.9485 14.074C44.9485 13.4953 44.7432 13.038 44.3325 12.702C43.9312 12.3567 43.3898 12.184 42.7085 12.184C42.2698 12.184 41.8778 12.268 41.5325 12.436C41.1965 12.604 40.9305 12.8327 40.7345 13.122C40.5478 13.4113 40.4545 13.7333 40.4545 14.088C40.4545 14.4333 40.5432 14.7507 40.7205 15.04C40.9072 15.32 41.1732 15.5487 41.5185 15.726C41.8732 15.894 42.2932 15.978 42.7785 15.978Z" fill="white"/>
<path d="M19.9555 9.04549C19.8436 8.70742 19.5383 8.46806 19.1785 8.43609L14.2711 7.99853L12.3317 3.53909C12.1885 3.21146 11.8627 3 11.5 3C11.1374 3 10.8114 3.21146 10.6691 3.53909L8.72971 7.99853L3.82154 8.43609C3.46175 8.4687 3.15708 8.70805 3.0445 9.04549C2.93257 9.38357 3.03594 9.75438 3.30805 9.98877L7.01765 13.1834L5.92388 17.9147C5.84385 18.2626 5.98133 18.6223 6.27524 18.831C6.43321 18.9437 6.61882 19 6.80507 19C6.96512 19 7.1253 18.9582 7.26836 18.8741L11.5 16.3891L15.7309 18.8741C16.0413 19.0563 16.4315 19.0396 16.7248 18.831C17.0187 18.6223 17.1562 18.2626 17.0761 17.9147L15.9824 13.1834L19.692 9.98877C19.964 9.75438 20.0675 9.38433 19.9555 9.04549Z" fill="white"/>
<defs>
<linearGradient id="paint0_linear_63_82" x1="25" y1="0" x2="25" y2="23" gradientUnits="userSpaceOnUse">
<stop stop-color="#BC37DE"/>
<stop offset="1" stop-color="#9B1CBB"/>
</linearGradient>
</defs>
</svg>
