<svg width="22" height="22" viewBox="0 0 22 22" fill="none" xmlns="http://www.w3.org/2000/svg">
<path d="M12.8337 13.75L9.16699 17.4167L12.8337 21.0833" stroke="#717171" stroke-width="2"/>
<path d="M16.5573 7.79167C17.1205 8.76712 17.417 9.87364 17.417 11C17.417 12.1264 17.1205 13.2329 16.5573 14.2083C15.9941 15.1838 15.1841 15.9938 14.2087 16.557C13.2332 17.1202 12.1267 17.4167 11.0003 17.4167" stroke="#717171" stroke-width="2" stroke-linecap="round"/>
<path d="M9.16634 8.25L12.833 4.58333L9.16634 0.916667" stroke="#717171" stroke-width="2"/>
<path d="M5.44268 14.2083C4.8795 13.2329 4.58301 12.1264 4.58301 11C4.58301 9.87364 4.8795 8.76712 5.44268 7.79167C6.00586 6.81621 6.81588 6.00618 7.79134 5.443C8.7668 4.87982 9.87331 4.58333 10.9997 4.58333" stroke="#717171" stroke-width="2" stroke-linecap="round"/>
</svg>
