<svg width="78" height="78" viewBox="0 0 78 78" fill="none" xmlns="http://www.w3.org/2000/svg">
<path fill-rule="evenodd" clip-rule="evenodd" d="M39 78C60.5391 78 78 60.5391 78 39C78 17.4609 60.5391 0 39 0C17.4609 0 0 17.4609 0 39C0 60.5391 17.4609 78 39 78ZM58.638 27.9206C59.6987 26.6477 59.5267 24.756 58.2539 23.6953C56.9811 22.6346 55.0894 22.8066 54.0287 24.0794L34.4651 47.5558L23.788 36.8787C22.6164 35.7071 20.7169 35.7071 19.5454 36.8787C18.3738 38.0503 18.3738 39.9497 19.5454 41.1213L30.9967 52.5727L31.0652 52.6413C31.3611 52.9379 31.7698 53.3475 32.1783 53.6564C32.6882 54.042 33.5731 54.5693 34.7807 54.5145C35.9884 54.4597 36.8219 53.8545 37.2948 53.4243C37.6736 53.0797 38.0435 52.6348 38.3114 52.3126L38.3114 52.3126L38.3734 52.2381L58.638 27.9206Z" fill="#7DD1C1"/>
</svg>
