<svg width="21" height="20" viewBox="0 0 21 20" fill="none" xmlns="http://www.w3.org/2000/svg">
<path d="M20.8416 7.80676C20.7079 7.40284 20.3431 7.11688 19.9133 7.07868L14.0502 6.55591L11.7331 1.22805C11.562 0.836619 11.1728 0.583984 10.7395 0.583984C10.3062 0.583984 9.91682 0.836619 9.74683 1.22805L7.42973 6.55591L1.56575 7.07868C1.1359 7.11764 0.771897 7.40361 0.637392 7.80676C0.503662 8.21067 0.627165 8.65369 0.952269 8.93372L5.38426 12.7505L4.07749 18.4031C3.98188 18.8187 4.14614 19.2485 4.49728 19.4978C4.68602 19.6325 4.90776 19.6998 5.13028 19.6998C5.3215 19.6998 5.51288 19.6499 5.6838 19.5494L10.7395 16.5805L15.7943 19.5494C16.1651 19.767 16.6314 19.7471 16.9817 19.4978C17.3329 19.2485 17.4971 18.8187 17.4015 18.4031L16.0947 12.7505L20.5267 8.93372C20.8517 8.65369 20.9753 8.21158 20.8416 7.80676Z" fill="white"/>
</svg>
