<svg width="20" height="20" viewBox="0 0 20 20" fill="none" xmlns="http://www.w3.org/2000/svg">
<path d="M10 20C4.46886 20 0 15.4945 0 10C0 4.50549 4.46886 0 10 0C15.4945 0 20 4.46886 20 10C20 15.5311 15.4945 20 10 20Z" fill="#22C33F"/>
<path fill-rule="evenodd" clip-rule="evenodd" d="M10.4761 3.47986C7.14277 3.47986 4.43215 6.19048 4.43215 9.52381C4.43215 10.696 4.76182 11.8315 5.38453 12.7839L4.46878 14.7985C4.39552 15.0183 4.43215 15.2381 4.54204 15.3846C4.65193 15.4945 4.79845 15.5678 4.94497 15.5678C4.9816 15.5678 5.05486 15.5678 5.09149 15.5311L7.61896 14.8352C8.49808 15.3114 9.48709 15.5311 10.4761 15.5311C13.8094 15.5311 16.5201 12.8205 16.5201 9.48718C16.5201 6.19048 13.8094 3.47986 10.4761 3.47986ZM10.4761 14.5055C9.59698 14.5055 8.71786 14.2857 7.98526 13.8095C7.912 13.7729 7.80211 13.7363 7.72885 13.7363C7.69222 13.7363 7.61896 13.7363 7.58233 13.7729L5.93398 14.2125L6.52006 12.9304C6.59332 12.7473 6.59332 12.5641 6.48343 12.4176C5.82409 11.5751 5.49442 10.5861 5.49442 9.52381C5.49442 6.77656 7.72885 4.54213 10.4761 4.54213C13.2234 4.54213 15.4578 6.77656 15.4578 9.52381C15.4578 12.2711 13.2234 14.5055 10.4761 14.5055Z" fill="white"/>
<path fill-rule="evenodd" clip-rule="evenodd" d="M12.784 10.4396C12.5276 10.293 12.1979 10.1099 11.9049 10.2564C11.6851 10.3663 11.5386 10.696 11.3921 10.8791C11.3188 10.989 11.2089 10.989 11.099 10.9524C10.2565 10.6227 9.59718 10.0366 9.12099 9.2674C9.04773 9.15751 9.04773 9.04762 9.15762 8.93773C9.30414 8.75458 9.48729 8.57143 9.52392 8.35165C9.56055 8.13187 9.45066 7.87546 9.3774 7.65568C9.26751 7.39927 9.12099 7.03297 8.86458 6.88645C8.6448 6.73993 8.31513 6.81319 8.09535 6.99634C7.72905 7.28938 7.5459 7.76557 7.5459 8.20513C7.5459 8.35165 7.5459 8.46154 7.58253 8.60806C7.65579 8.9011 7.80231 9.19414 7.94883 9.45055C8.05872 9.67033 8.20524 9.85348 8.35176 10.0366C8.82795 10.6593 9.3774 11.2088 10.0367 11.6117C10.3664 11.8315 10.7327 11.978 11.099 12.1245C11.5019 12.2711 11.8682 12.4176 12.3078 12.3077C12.784 12.2344 13.2236 11.9414 13.4067 11.4652C13.4433 11.3187 13.48 11.1722 13.4433 11.0256C13.4067 10.7326 13.0404 10.5861 12.784 10.4396Z" fill="white"/>
</svg>
