<svg width="73" height="57" viewBox="0 0 73 57" fill="none" xmlns="http://www.w3.org/2000/svg">
<g clip-path="url(#clip0_63_722)">
<path d="M4.36317 47.2248H7.32739L4.59144 53.3663H7.11217L6.61976 52.2665L8.09372 48.9508L11.6873 57.0032H8.72309L8.11002 55.6244H3.57728L2.96422 57.0032H0L4.36317 47.2248Z" fill="white"/>
<path d="M20.9549 47.2248C22.4745 47.2248 23.7202 48.2986 23.7202 49.6126V50.4496C23.7202 51.0855 23.4267 51.6565 22.9669 52.0816C23.4267 52.5455 23.7202 53.1425 23.7202 53.7784V54.6154C23.7202 55.9294 22.4745 57.0032 20.9549 57.0032H12.4731V50.9817H20.9549V49.4828H12.6264V47.228H20.9549V47.2248ZM20.9549 54.7452V53.2463H15.2384V54.7452H20.9549Z" fill="white"/>
<path d="M27.653 53.2333C26.1334 53.2333 24.8877 52.1594 24.8877 50.8455V49.6126C24.8877 48.2986 26.1334 47.2248 27.653 47.2248H35.8282V49.4796H27.653V50.9785H33.0597C34.5793 50.9785 35.825 52.0524 35.825 53.3663V54.6122C35.825 55.9261 34.5793 57 33.0597 57H24.8877V54.7452H33.0629V53.2333H27.653Z" fill="white"/>
<path d="M40.048 47.2248V57.0032H37.2827V47.2248H40.048ZM45.7188 47.2248H48.4841V57.0032H45.7188V53.2365H41.4176V50.9817H45.7188V47.2248Z" fill="white"/>
<path d="M52.5536 56.987C51.034 56.987 49.7883 55.9131 49.7883 54.5992V49.6126C49.7883 48.2986 51.034 47.2248 52.5536 47.2248H60.2658V49.4796H52.5536V50.9785H60.1125V53.2333H52.5536V54.7322H60.4191V56.987H52.5536Z" fill="white"/>
<path d="M61.9389 47.2248H70.2218C71.7414 47.2248 72.9871 48.2986 72.9871 49.6126V51.1504C72.9871 52.4644 71.7414 53.5383 70.2218 53.5383L73.0034 57H69.6381L66.8564 53.5383H64.5509V57H61.7856V51.2834H70.2218V49.4796H61.9389V47.2248Z" fill="white"/>
<path d="M13.7286 23.3204C13.722 23.3204 13.7155 23.3171 13.709 23.3139L13.7188 23.3171C13.722 23.3171 13.7253 23.3171 13.7286 23.3204Z" fill="#9B1CBB"/>
<path d="M13.7286 23.3204C13.722 23.3204 13.7155 23.3171 13.709 23.3139L13.7188 23.3171C13.722 23.3171 13.7253 23.3171 13.7286 23.3204Z" fill="white"/>
<path d="M13.8331 23.3755C13.8331 23.3755 13.8266 23.3723 13.8103 23.3658C13.8168 23.3593 13.8299 23.3788 13.8331 23.3755Z" fill="white"/>
<path d="M30.4639 30.1011L25.8921 41.5212C25.354 42.8644 24.0659 43.6884 22.6996 43.7047C22.2561 43.7111 21.8028 43.63 21.3658 43.4581C19.5788 42.7508 18.7049 40.7328 19.4158 38.9549L24.0529 27.3694C25.9573 28.4335 28.1193 29.4133 30.4639 30.1011Z" fill="white"/>
<path d="M54.4582 43.0136C54.0245 43.1985 53.5745 43.2894 53.131 43.2959C51.7647 43.3153 50.4538 42.5237 49.8798 41.1968L44.9232 29.7247L43.8112 27.1487L37.4947 12.5297L32.3847 25.3059L31.5043 27.5056L31.4065 27.7489L30.464 30.1011C28.1194 29.4133 25.9574 28.4335 24.053 27.3726L24.8617 25.3546L25.0965 24.7706L25.8465 22.8954L34.1359 2.18668C34.1783 2.07962 34.2272 1.9758 34.2794 1.87523C34.3022 1.82656 34.3315 1.78438 34.3576 1.73896C34.387 1.68705 34.4163 1.63514 34.4489 1.58323C34.4816 1.53132 34.5174 1.4859 34.5533 1.43724C34.5859 1.39506 34.6152 1.34964 34.6479 1.30746C34.6837 1.26204 34.7261 1.21987 34.7653 1.17445C34.8011 1.13227 34.837 1.09334 34.8761 1.05116C34.9153 1.01223 34.9576 0.97654 34.9968 0.937608C35.0392 0.898676 35.0816 0.856499 35.1272 0.817567C35.1696 0.781879 35.212 0.75268 35.2544 0.720236C35.3033 0.684549 35.349 0.645616 35.3979 0.613173C35.4468 0.577485 35.499 0.548286 35.5511 0.519087C35.5968 0.493132 35.6392 0.460688 35.6881 0.434734C35.7892 0.37958 35.8903 0.330914 35.9946 0.285493H35.9979C36.0109 0.279005 36.0272 0.27576 36.0403 0.269272C36.1316 0.230339 36.2229 0.194652 36.3175 0.165452C36.3696 0.149231 36.4218 0.139498 36.474 0.123276C36.5327 0.107054 36.5881 0.0908323 36.6468 0.0778549C36.7055 0.0648775 36.7675 0.0583888 36.8262 0.0486558C36.8784 0.0389227 36.9305 0.0291897 36.9827 0.0259453C37.0414 0.0194566 37.1034 0.0162123 37.1621 0.0129679C37.2142 0.00972357 37.2697 0.00647921 37.3219 0.00323486C37.3805 0.00323486 37.436 0.00647921 37.4947 0.00647921C37.5501 0.00972357 37.6088 0.00972357 37.6643 0.0129679C37.7197 0.0162123 37.7784 0.0259453 37.8338 0.032434C37.8893 0.0389227 37.948 0.0454114 38.0034 0.0551445C38.0686 0.0681219 38.1306 0.0843436 38.1925 0.097321C38.2414 0.110298 38.2871 0.116787 38.336 0.133009C38.4404 0.162208 38.5447 0.197896 38.6458 0.236828C38.6523 0.240072 38.6556 0.240072 38.6621 0.240072C38.7665 0.282249 38.8741 0.330914 38.9752 0.382824C39.0208 0.405534 39.0599 0.431489 39.1056 0.457444C39.161 0.489887 39.2165 0.519087 39.2719 0.554775C39.3208 0.587218 39.3665 0.619662 39.4121 0.655349C39.4578 0.687793 39.5034 0.716992 39.5491 0.75268C39.5947 0.788368 39.6371 0.8273 39.6795 0.866232C39.7219 0.90192 39.7643 0.940852 39.8067 0.979784C39.8458 1.01872 39.8817 1.05765 39.9176 1.09658C39.96 1.13876 39.9991 1.18418 40.0382 1.2296C40.0741 1.27178 40.1035 1.31071 40.1361 1.35288C40.1719 1.40155 40.2111 1.44697 40.2469 1.49888C40.2828 1.54755 40.3122 1.59946 40.3415 1.65137C40.3709 1.69679 40.4002 1.74221 40.4263 1.78763C40.4817 1.8882 40.5306 1.98878 40.5763 2.09584L49.2994 22.2887L50.082 24.099L50.3462 24.7122L51.207 26.7075L56.2844 38.4585C57.0442 40.2202 56.2289 42.2577 54.4582 43.0136Z" fill="white"/>
<path d="M31.4063 27.7489L32.3846 25.3059C30.0139 24.7836 27.8421 23.8882 25.8464 22.8954L24.8616 25.3578C26.8638 26.3376 29.0421 27.1877 31.4063 27.7489Z" fill="#D3D3D3"/>
<path d="M49.2993 22.2887C47.3622 23.3691 45.2198 24.3229 42.8784 24.975L43.9252 27.3953C46.2666 26.7172 48.4025 25.7764 50.346 24.7122L49.2993 22.2887Z" fill="#D3D3D3"/>
<path d="M58.8931 20.4589C58.6811 20.6957 55.7821 23.8849 51.207 26.7107C49.3645 27.8463 47.2481 28.9266 44.9231 29.728C42.6013 30.5293 40.074 31.0582 37.4033 31.0939C37.3087 31.0939 37.2109 31.0971 37.1163 31.0971C34.788 31.0971 32.551 30.7175 30.4607 30.1043C28.1161 29.4165 25.954 28.4367 24.0496 27.3758C20.3093 25.2865 17.5603 22.8856 16.3798 21.7696C15.8189 21.2408 15.7961 20.3583 16.3277 19.8003C16.5951 19.5213 16.957 19.3655 17.3418 19.3655C17.7005 19.3655 18.0429 19.5018 18.3038 19.7484C19.3636 20.7509 21.7996 22.8824 25.0931 24.7674C26.978 25.8445 29.1465 26.8438 31.5009 27.5024C33.2814 28.002 35.1663 28.307 37.1163 28.307C37.1978 28.307 37.2826 28.307 37.3674 28.3037C39.6305 28.2745 41.7991 27.83 43.8111 27.1487H43.8143C46.1394 26.3603 48.259 25.254 50.0787 24.099C54.1679 21.5036 56.7539 18.6583 56.8028 18.6063C57.0669 18.3111 57.4484 18.1392 57.8463 18.1392C58.1887 18.1392 58.5213 18.2657 58.7757 18.4928C59.0561 18.7394 59.2192 19.08 59.242 19.4531C59.2681 19.823 59.1409 20.1799 58.8931 20.4589Z" fill="white"/>
<path d="M61.505 19.7289C61.4952 20.5205 61.2376 21.2829 60.7745 21.9188C60.6963 22.0291 60.6082 22.1362 60.5169 22.2368C60.4973 22.2595 60.4778 22.2757 60.4517 22.2952C60.4452 22.2854 60.4354 22.2757 60.4256 22.266C60.331 22.1686 60.2006 22.1167 60.0636 22.1167C59.9528 22.1167 59.8484 22.1524 59.7636 22.2141C59.6332 22.0518 59.6201 21.8247 59.731 21.6495C59.744 21.6236 59.7636 21.6009 59.7832 21.5782C60.2462 21.0656 60.5071 20.4037 60.5169 19.7159C60.5397 18.1489 59.2745 16.8609 57.7027 16.8382C57.2331 16.8317 56.7831 16.9355 56.3689 17.1464C56.1276 17.2697 55.8309 17.1756 55.707 16.9323C55.5831 16.6922 55.6776 16.3969 55.9222 16.2737C56.4733 15.9914 57.0961 15.8486 57.719 15.8584C59.8354 15.8876 61.5343 17.6233 61.505 19.7289Z" fill="white"/>
<path d="M60.7845 22.8564V23.4502C60.6834 23.4112 60.5758 23.3788 60.4682 23.3561C60.4682 23.3561 60.4682 23.3561 60.4649 23.3561V22.9538C60.4649 22.8564 60.429 22.7656 60.3638 22.691C60.3573 22.6845 60.3508 22.6748 60.3442 22.6683C60.2692 22.5937 60.1649 22.5515 60.0573 22.5515C59.9692 22.5515 59.8877 22.5807 59.8225 22.6293C59.7214 22.7007 59.6529 22.8208 59.6529 22.957V23.3593C59.6464 23.3593 59.6464 23.3593 59.6464 23.3593C59.6138 23.3658 59.5812 23.3755 59.5486 23.382C59.4736 23.4015 59.4018 23.4242 59.3301 23.4534V22.8597C59.3301 22.5547 59.5225 22.2919 59.7964 22.1849C59.8779 22.1524 59.966 22.1362 60.0573 22.1362C60.2529 22.1362 60.4323 22.2108 60.5692 22.3471C60.5856 22.3633 60.6019 22.3795 60.6149 22.399C60.7258 22.5223 60.7845 22.6877 60.7845 22.8564Z" fill="white"/>
<path d="M60.0605 27.0384C59.3822 27.0384 58.8441 26.4999 58.8441 25.8218C58.8441 25.147 59.3887 24.6117 60.0703 24.6117C60.742 24.6117 61.2833 25.1535 61.2833 25.825C61.2833 26.4999 60.7388 27.0384 60.0605 27.0384ZM62.679 25.2281C62.3334 23.9693 61.1105 23.0576 59.6561 23.262C59.1246 23.3366 58.655 23.5605 58.2539 23.9206C57.7191 24.4008 57.4256 25.001 57.3571 25.7147C57.3213 26.0716 57.4224 26.3993 57.5593 26.7237C57.8137 27.3272 58.1365 27.8949 58.4757 28.453C58.9876 29.2932 59.5094 30.127 60.0246 30.9641C60.0246 30.9641 60.0246 30.9673 60.0279 30.9706C60.0344 30.9836 60.0572 31.0192 60.0572 31.0225C60.0572 31.0225 60.067 31.0063 60.0898 30.9641C60.0898 30.9641 60.0898 30.9608 60.0931 30.9608C60.5398 30.2438 60.9899 29.5301 61.4366 28.8131C61.8247 28.1869 62.1997 27.551 62.5062 26.8795C62.7573 26.3409 62.8388 25.8023 62.679 25.2281Z" fill="white"/>
<path d="M12.7177 22.944C12.6851 22.944 12.6525 22.9473 12.6199 22.9505C12.6362 22.9473 12.6525 22.9473 12.6688 22.944L12.7144 22.9408C12.7177 22.944 12.7177 22.944 12.7177 22.944Z" fill="white"/>
<path d="M19.5722 18.1684C19.4483 18.4117 19.1515 18.5058 18.9102 18.3825C18.4928 18.1716 18.0461 18.0678 17.5732 18.0743C16.0015 18.0937 14.7362 19.385 14.759 20.952C14.7688 21.6171 15.0134 22.2563 15.4438 22.7591C15.4438 22.7591 15.4438 22.7591 15.4471 22.7624L15.4601 22.7753C15.5025 22.811 15.6036 22.9116 15.6362 22.9343C15.6395 22.9376 15.6427 22.9376 15.646 22.9376L15.6688 22.9505C15.6819 22.957 15.6982 22.9635 15.7112 22.9733C15.0558 22.6456 14.4558 22.7007 14.2438 22.7364C13.947 22.1979 13.784 21.5879 13.7775 20.9618C13.7481 18.8562 15.4438 17.1204 17.5602 17.0945C18.183 17.0848 18.8026 17.2275 19.357 17.5098C19.6016 17.6363 19.6961 17.9283 19.5722 18.1684Z" fill="white"/>
<path d="M18.4049 30.711C18.418 30.9381 18.2614 31.1295 18.0658 31.1295H11.7819C11.583 31.1295 11.4264 30.9349 11.4395 30.711L11.4917 29.9259C11.6417 30.02 11.8178 30.0719 12.0069 30.0719C12.5515 30.0719 12.995 29.6306 12.995 29.0888C12.995 28.5892 12.62 28.1772 12.1373 28.1155C12.3134 28.002 12.4308 27.8041 12.4308 27.577C12.4308 27.2233 12.1438 26.9378 11.7884 26.9378C11.7558 26.9378 11.7232 26.9411 11.6906 26.9443L11.7688 25.7439C11.7819 25.5395 11.9319 25.3838 12.1112 25.3838H17.7299C17.8799 25.3838 18.0071 25.4909 18.0527 25.6433C18.0625 25.6725 18.069 25.705 18.0723 25.7407L18.2256 28.0312L18.2582 28.5276L18.4049 30.711Z" fill="white"/>
<path d="M12.721 29.0888C12.721 29.4782 12.4047 29.7961 12.0101 29.7961C11.8177 29.7961 11.6449 29.7215 11.5177 29.5982C11.384 29.4717 11.3025 29.29 11.3025 29.0921C11.3025 28.8585 11.4166 28.6541 11.5895 28.5243C11.7068 28.4367 11.8536 28.3848 12.0134 28.3848C12.4014 28.3816 12.721 28.6963 12.721 29.0888Z" fill="white"/>
<path d="M12.157 27.577C12.157 27.7781 11.9939 27.9403 11.7917 27.9403C11.733 27.9403 11.6776 27.9274 11.6287 27.9014C11.508 27.843 11.4265 27.7197 11.4265 27.577C11.4265 27.418 11.5309 27.2817 11.6711 27.2331C11.707 27.2201 11.7493 27.2136 11.7885 27.2136C11.9939 27.2136 12.157 27.3758 12.157 27.577Z" fill="white"/>
<path d="M10.6863 28.5308C10.933 28.5308 11.133 28.3318 11.133 28.0863C11.133 27.8408 10.933 27.6418 10.6863 27.6418C10.4395 27.6418 10.2395 27.8408 10.2395 28.0863C10.2395 28.3318 10.4395 28.5308 10.6863 28.5308Z" fill="white"/>
<path d="M10.8199 27.3564C10.9819 27.3564 11.1133 27.2256 11.1133 27.0644C11.1133 26.9031 10.9819 26.7724 10.8199 26.7724C10.6578 26.7724 10.5264 26.9031 10.5264 27.0644C10.5264 27.2256 10.6578 27.3564 10.8199 27.3564Z" fill="white"/>
<path d="M11.1559 26.3279C11.345 26.3279 11.4983 26.1754 11.4983 25.9872C11.4983 25.7991 11.345 25.6466 11.1559 25.6466C10.9668 25.6466 10.8135 25.7991 10.8135 25.9872C10.8135 26.1754 10.9668 26.3279 11.1559 26.3279Z" fill="white"/>
<path d="M17.2244 24.8225L17.2211 25.3871H16.6635L16.6668 24.8193C16.6733 24.1996 16.3309 23.6221 15.7928 23.3172L15.7863 23.2977C15.783 23.3009 15.7798 23.3042 15.7765 23.3107C15.7635 23.3009 15.7439 23.2912 15.7178 23.2782C15.7146 23.2782 15.7113 23.2782 15.708 23.275C15.7048 23.275 15.6983 23.2717 15.6917 23.2685C15.6526 23.2523 15.6004 23.2296 15.5385 23.2069C15.3591 23.1387 15.1048 23.0706 14.8406 23.0803C14.8374 23.0803 14.8374 23.0771 14.8374 23.0771L14.795 23.0803C14.7787 23.0803 14.7656 23.0836 14.7493 23.0836H14.7428C14.6319 23.0933 14.5243 23.116 14.4167 23.1485C14.1558 23.2296 13.9178 23.3723 13.7221 23.5637C13.396 23.8849 13.2134 24.3132 13.2101 24.7706L13.2036 25.3871H12.646L12.6493 24.7674C12.6558 24.1639 12.8938 23.5994 13.3308 23.1712C13.5884 22.9181 13.908 22.7267 14.2471 22.6229C14.3156 22.6002 14.3808 22.5872 14.446 22.571C14.4624 22.5677 14.4787 22.5645 14.4917 22.5612C14.495 22.558 14.495 22.558 14.495 22.558H14.4982C14.7134 22.5223 15.3298 22.4639 15.9983 22.7981C16.7548 23.1874 17.2342 23.979 17.2244 24.8225Z" fill="white"/>
<path d="M16.9406 26.4966C17.1874 26.4966 17.3874 26.2976 17.3874 26.0521C17.3874 25.8067 17.1874 25.6077 16.9406 25.6077C16.6939 25.6077 16.4939 25.8067 16.4939 26.0521C16.4939 26.2976 16.6939 26.4966 16.9406 26.4966Z" fill="#9B1CBB"/>
<path d="M16.9407 26.3441C17.1028 26.3441 17.2342 26.2134 17.2342 26.0522C17.2342 25.8909 17.1028 25.7602 16.9407 25.7602C16.7786 25.7602 16.6472 25.8909 16.6472 26.0522C16.6472 26.2134 16.7786 26.3441 16.9407 26.3441Z" fill="white"/>
<path d="M16.9407 26.1982C17.0217 26.1982 17.0874 26.1328 17.0874 26.0522C17.0874 25.9715 17.0217 25.9062 16.9407 25.9062C16.8596 25.9062 16.7939 25.9715 16.7939 26.0522C16.7939 26.1328 16.8596 26.1982 16.9407 26.1982Z" fill="#9B1CBB"/>
<path d="M12.9363 26.4966C13.183 26.4966 13.383 26.2976 13.383 26.0521C13.383 25.8067 13.183 25.6077 12.9363 25.6077C12.6895 25.6077 12.4895 25.8067 12.4895 26.0521C12.4895 26.2976 12.6895 26.4966 12.9363 26.4966Z" fill="#9B1CBB"/>
<path d="M12.9363 26.3441C13.0984 26.3441 13.2298 26.2134 13.2298 26.0522C13.2298 25.8909 13.0984 25.7602 12.9363 25.7602C12.7742 25.7602 12.6428 25.8909 12.6428 26.0522C12.6428 26.2134 12.7742 26.3441 12.9363 26.3441Z" fill="white"/>
<path d="M12.9363 26.1982C13.0173 26.1982 13.083 26.1328 13.083 26.0522C13.083 25.9715 13.0173 25.9062 12.9363 25.9062C12.8553 25.9062 12.7896 25.9715 12.7896 26.0522C12.7896 26.1328 12.8553 26.1982 12.9363 26.1982Z" fill="#9B1CBB"/>
<path d="M16.4745 29.5528L16.2788 29.7474L15.8027 29.2478L15.4962 29.715C15.4896 29.728 15.4701 29.7247 15.4636 29.7117L15.3657 29.4684L14.7396 27.8917C14.7331 27.8722 14.7396 27.8495 14.7527 27.8398L16.4745 29.5528Z" fill="#9B1CBB"/>
<path d="M14.4558 27.6354L14.4004 27.71C14.3939 27.7197 14.3776 27.723 14.3678 27.7132L14.0678 27.4926C14.058 27.4861 14.0547 27.4699 14.0645 27.4602L14.1199 27.3856C14.1265 27.3758 14.1428 27.3726 14.1525 27.3823L14.4526 27.6029C14.4623 27.6094 14.4656 27.6256 14.4558 27.6354Z" fill="#9B1CBB"/>
<path d="M14.3645 27.8787V27.9728C14.3645 27.9858 14.3547 27.9955 14.3417 27.9955L13.9667 27.9923C13.9536 27.9923 13.9438 27.9825 13.9438 27.9695V27.8755C13.9438 27.8625 13.9536 27.8528 13.9667 27.8528L14.3417 27.856C14.3547 27.856 14.3645 27.8657 14.3645 27.8787Z" fill="#9B1CBB"/>
<path d="M14.4364 28.1318L14.4918 28.2096C14.4983 28.2193 14.4951 28.2323 14.4853 28.2421L14.182 28.4562C14.1722 28.4627 14.1592 28.4594 14.1494 28.4497L14.094 28.3718C14.0874 28.3621 14.0907 28.3491 14.1005 28.3394L14.4038 28.1253C14.4135 28.1188 14.4266 28.122 14.4364 28.1318Z" fill="#9B1CBB"/>
<path d="M15.1438 27.6646L15.0884 27.5867C15.0818 27.577 15.0851 27.564 15.0949 27.5543L15.3981 27.3401C15.4079 27.3336 15.421 27.3369 15.4308 27.3466L15.4862 27.4245C15.4927 27.4342 15.4895 27.4472 15.4797 27.4569L15.1764 27.6711C15.1634 27.6776 15.1503 27.6743 15.1438 27.6646Z" fill="#9B1CBB"/>
<path d="M14.9384 27.5024L14.8503 27.4732C14.8373 27.4699 14.8308 27.4569 14.8373 27.444L14.9579 27.0903C14.9612 27.0773 14.9742 27.0709 14.9873 27.0773L15.0753 27.1065C15.0884 27.1098 15.0949 27.1228 15.0884 27.1357L14.9677 27.4894C14.9612 27.4991 14.9481 27.5056 14.9384 27.5024Z" fill="#9B1CBB"/>
<path d="M14.6743 27.4894L14.5829 27.5186C14.5699 27.5218 14.5601 27.5153 14.5536 27.5024L14.4427 27.1487C14.4395 27.1358 14.446 27.126 14.459 27.1195L14.5503 27.0903C14.5634 27.0871 14.5732 27.0936 14.5797 27.1066L14.6906 27.4602C14.6938 27.4732 14.6873 27.4861 14.6743 27.4894Z" fill="#9B1CBB"/>
<path d="M16.6864 28.5957L16.3701 28.7449L16.1484 28.8488L16.194 28.8942L16.6604 29.3711L16.4745 29.556L14.7527 27.8398C14.7657 27.8268 14.782 27.8235 14.8016 27.83L16.5984 28.5308L16.6864 28.5633C16.6995 28.5697 16.7027 28.5892 16.6864 28.5957Z" fill="url(#paint0_linear_63_722)"/>
</g>
<defs>
<linearGradient id="paint0_linear_63_722" x1="16.0528" y1="28.2284" x2="15.5675" y2="28.7609" gradientUnits="userSpaceOnUse">
<stop stop-color="#831796"/>
<stop offset="1" stop-color="#831691"/>
</linearGradient>
<clipPath id="clip0_63_722">
<rect width="73" height="57" fill="white"/>
</clipPath>
</defs>
</svg>
